<svg width="323" height="286" viewBox="0 0 323 286" fill="none" xmlns="http://www.w3.org/2000/svg">
<path d="M192.581 249.207L18.5157 140.246L107.418 115.87L157.776 172.26L192.581 249.207Z" fill="url(#paint0_linear_37_868)"/>
<path d="M192.568 249.208L283.598 67.5199L194.696 91.8963L184.076 167.722L192.568 249.208Z" fill="url(#paint1_linear_37_868)"/>
<path d="M18.5176 140.244L46.4478 73.2483L75.6121 66.6316L105.456 68.4221L115.536 95.1703L112.109 123.259L18.5176 140.244Z" fill="url(#paint2_linear_37_868)"/>
<path d="M194.569 101.166L180.356 79.0014L175.25 49.7227L195.667 34.8153L225.837 24.0143L283.609 67.5204L194.569 101.166Z" fill="url(#paint3_linear_37_868)"/>
<path d="M112.109 123.261L192.583 249.208L194.572 101.165L150.943 103.916L112.109 123.261Z" fill="url(#paint4_linear_37_868)"/>
<path d="M112.106 123.258L105.453 68.4211L137.722 53.9314L175.25 49.7189L194.569 101.162L112.106 123.258Z" fill="url(#paint5_linear_37_868)"/>
<path d="M46.4459 73.249L105.454 68.4227L175.252 49.7205L225.839 24.0121L167.591 26.239L101.164 44.0381L46.4459 73.249Z" fill="url(#paint6_linear_37_868)"/>
<defs>
<linearGradient id="paint0_linear_37_868" x1="-6.39763" y1="62.4886" x2="175.541" y2="233.613" gradientUnits="userSpaceOnUse">
<stop stop-color="#CD9DFF"/>
<stop offset="0.11" stop-color="#CF94F5"/>
<stop offset="0.29" stop-color="#D57DDC"/>
<stop offset="0.51" stop-color="#DF57B5"/>
<stop offset="0.61" stop-color="#E544A1"/>
<stop offset="0.73" stop-color="#EB3078"/>
<stop offset="0.99" stop-color="#FD0110"/>
<stop offset="1" stop-color="#E7002D"/>
</linearGradient>
<linearGradient id="paint1_linear_37_868" x1="172.906" y1="175.828" x2="303.26" y2="140.9" gradientUnits="userSpaceOnUse">
<stop stop-color="#CD9DFF"/>
<stop offset="0.11" stop-color="#CF94F5"/>
<stop offset="0.29" stop-color="#D57DDC"/>
<stop offset="0.51" stop-color="#DF57B5"/>
<stop offset="0.61" stop-color="#E544A1"/>
<stop offset="0.73" stop-color="#EB3078"/>
<stop offset="0.99" stop-color="#FD0110"/>
<stop offset="1" stop-color="#E7002D"/>
</linearGradient>
<linearGradient id="paint2_linear_37_868" x1="56.8461" y1="54.9779" x2="68.3515" y2="126.127" gradientUnits="userSpaceOnUse">
<stop stop-color="#CD9DFF"/>
<stop offset="0.11" stop-color="#CF94F5"/>
<stop offset="0.29" stop-color="#D57DDC"/>
<stop offset="0.51" stop-color="#DF57B5"/>
<stop offset="0.61" stop-color="#E544A1"/>
<stop offset="0.73" stop-color="#EB3078"/>
<stop offset="0.99" stop-color="#FD0110"/>
<stop offset="1" stop-color="#E7002D"/>
</linearGradient>
<linearGradient id="paint3_linear_37_868" x1="178.253" y1="71.151" x2="277.459" y2="44.5688" gradientUnits="userSpaceOnUse">
<stop stop-color="#CD9DFF"/>
<stop offset="0.11" stop-color="#CF94F5"/>
<stop offset="0.29" stop-color="#D57DDC"/>
<stop offset="0.51" stop-color="#DF57B5"/>
<stop offset="0.61" stop-color="#E544A1"/>
<stop offset="0.73" stop-color="#EB3078"/>
<stop offset="0.99" stop-color="#FD0110"/>
<stop offset="1" stop-color="#E7002D"/>
</linearGradient>
<linearGradient id="paint4_linear_37_868" x1="129.426" y1="187.891" x2="211.89" y2="165.795" gradientUnits="userSpaceOnUse">
<stop stop-color="#CD9DFF"/>
<stop offset="0.11" stop-color="#CF94F5"/>
<stop offset="0.29" stop-color="#D57DDC"/>
<stop offset="0.51" stop-color="#DF57B5"/>
<stop offset="0.61" stop-color="#E544A1"/>
<stop offset="0.73" stop-color="#EB3078"/>
<stop offset="0.99" stop-color="#FD0110"/>
<stop offset="1" stop-color="#E7002D"/>
</linearGradient>
<linearGradient id="paint5_linear_37_868" x1="123.267" y1="28.7938" x2="152.681" y2="110.249" gradientUnits="userSpaceOnUse">
<stop stop-color="#CD9DFF"/>
<stop offset="0.11" stop-color="#CF94F5"/>
<stop offset="0.29" stop-color="#D57DDC"/>
<stop offset="0.51" stop-color="#DF57B5"/>
<stop offset="0.61" stop-color="#E544A1"/>
<stop offset="0.73" stop-color="#EB3078"/>
<stop offset="0.99" stop-color="#FD0110"/>
<stop offset="1" stop-color="#E7002D"/>
</linearGradient>
<linearGradient id="paint6_linear_37_868" x1="46.0004" y1="71.5862" x2="225.686" y2="23.4397" gradientUnits="userSpaceOnUse">
<stop stop-color="#CD9DFF"/>
<stop offset="0.11" stop-color="#CF94F5"/>
<stop offset="0.29" stop-color="#D57DDC"/>
<stop offset="0.51" stop-color="#DF57B5"/>
<stop offset="0.61" stop-color="#E544A1"/>
<stop offset="0.73" stop-color="#EB3078"/>
<stop offset="0.99" stop-color="#FD0110"/>
<stop offset="1" stop-color="#E7002D"/>
</linearGradient>
</defs>
</svg>
