<svg width="302" height="255" viewBox="0 0 302 255" fill="none" xmlns="http://www.w3.org/2000/svg">
<mask id="mask0_37_944" style="mask-type:alpha" maskUnits="userSpaceOnUse" x="0" y="0" width="302" height="255">
<rect width="302" height="255" fill="#D9D9D9"/>
</mask>
<g mask="url(#mask0_37_944)">
<path d="M130.271 51.523L292.053 100.344C299.716 102.657 303.847 111.254 301.297 119.532L272.191 213.994L289.901 255.322L251.533 236.778L251.754 236.485C251.205 236.396 250.671 236.518 250.144 236.359L88.3625 187.538C80.6986 185.225 76.5678 176.628 79.1183 168.35L111.782 62.3414C114.332 54.0639 122.607 49.2103 130.271 51.523Z" fill="url(#paint0_linear_37_944)"/>
<path d="M197.882 38.1629L73.0108 0.455245C66.1627 -1.61271 58.9264 2.16676 56.8541 8.89389L33.2179 85.6209L0.0768664 104.845L37.7555 110.567L37.7395 110.279C38.1799 110.463 38.5218 110.798 39.0007 110.943L163.872 148.65C170.72 150.718 177.956 146.939 180.029 140.212L206.556 54.0997C208.628 47.3726 204.754 40.2381 197.906 38.1701L197.882 38.1629Z" fill="url(#paint1_linear_37_944)"/>
</g>
<defs>
<linearGradient id="paint0_linear_37_944" x1="143.098" y1="90.3487" x2="234.469" y2="198.034" gradientUnits="userSpaceOnUse">
<stop stop-color="#961BFF"/>
<stop offset="1" stop-color="#FA0D48"/>
</linearGradient>
<linearGradient id="paint1_linear_37_944" x1="171.035" y1="58.8761" x2="-3.09607" y2="113.188" gradientUnits="userSpaceOnUse">
<stop stop-color="#CD9DFF"/>
<stop offset="0.11" stop-color="#CF94F5"/>
<stop offset="0.29" stop-color="#D57DDC"/>
<stop offset="0.51" stop-color="#DF57B5"/>
<stop offset="0.61" stop-color="#E544A1"/>
<stop offset="0.73" stop-color="#EB3078"/>
<stop offset="0.99" stop-color="#FD0110"/>
<stop offset="1" stop-color="#E7002D"/>
</linearGradient>
</defs>
</svg>
