<svg width="80" height="48" viewBox="0 0 80 48" fill="none" xmlns="http://www.w3.org/2000/svg">
<path d="M28.1096 18.1456C28.4958 18.0842 28.7735 18.0546 28.9429 18.0546C29.9682 18.0546 30.4808 18.5275 30.4808 19.4755V26.432L35.1847 18.873C35.3654 18.5707 35.5664 18.357 35.7899 18.2365C36.0135 18.116 36.2935 18.0546 36.6323 18.0546C37.0546 18.0546 37.4226 18.091 37.7365 18.1637V30.3308H35.3676V22.2081L30.212 30.3308H28.1141V18.1456H28.1096Z" fill="white"/>
<path d="M42.5279 23.081H47.0873V18.1456C47.4486 18.0842 47.7512 18.0546 47.9929 18.0546C48.4874 18.0546 48.8736 18.1728 49.1513 18.4093C49.4291 18.6457 49.5669 19.0003 49.5669 19.4755V30.3308H47.0873V25.0498H42.5279V30.3308H40.0483V18.1456C40.4345 18.0842 40.7236 18.0546 40.9178 18.0546C41.9904 18.0546 42.5279 18.5275 42.5279 19.4755V23.081Z" fill="white"/>
<path d="M54.6661 20.1689H50.8857C50.8496 19.9506 50.8315 19.7074 50.8315 19.4414C50.8315 19.0413 50.9693 18.723 51.2471 18.4843C51.5248 18.2479 51.8974 18.1297 52.3694 18.1297H60.8717C60.9079 18.3843 60.9259 18.6457 60.9259 18.9117C60.9259 19.3004 60.7972 19.6074 60.5375 19.8324C60.2778 20.0575 59.9142 20.1689 59.4423 20.1689H57.1637V30.3308H54.6661V20.1689Z" fill="white"/>
<path d="M68.6515 28.4006C69.1347 28.4006 69.5051 28.512 69.7648 28.737C70.0245 28.9621 70.1532 29.2804 70.1532 29.6941C70.1532 29.8283 70.151 29.9397 70.1442 30.0306C70.1374 30.1215 70.1284 30.2216 70.1171 30.3307H62.2832V18.1272H69.828C69.8642 18.3091 69.8822 18.5342 69.8822 18.8001C69.8822 19.2616 69.7648 19.589 69.5299 19.7845C69.2951 19.9777 68.8999 20.0755 68.3444 20.0755H64.7808V23.0809H68.6153V25.0292H64.7808V28.3983H68.6515V28.4006Z" fill="white"/>
<path d="M79.9943 21.7147C79.9943 23.0991 79.5653 24.1563 78.7094 24.8837C77.8535 25.6112 76.634 25.9772 75.0555 25.9772H74.1861V30.3307H71.6885V18.2023C72.725 18.0818 73.7932 18.0204 74.8907 18.0204C76.6024 18.0204 77.8806 18.3251 78.7252 18.9321C79.5698 19.539 79.9921 20.4689 79.9921 21.7192L79.9943 21.7147ZM77.4606 21.8442C77.4606 21.1645 77.2618 20.6507 76.8644 20.3052C76.4669 19.9596 75.8933 19.7868 75.1459 19.7868C74.771 19.7868 74.4458 19.805 74.168 19.8414V24.2131H74.7642C75.7172 24.2131 76.4037 24.0244 76.826 23.6493C77.2483 23.2742 77.4583 22.6718 77.4583 21.8465L77.4606 21.8442Z" fill="white"/>
<path d="M30.5858 46.8178H28.1062V34.6326C28.4924 34.5712 28.7814 34.5416 28.9756 34.5416C30.0483 34.5416 30.5858 35.0145 30.5858 35.9625V46.8178ZM35.0729 38.5859C34.9171 38.8178 34.7567 39.0452 34.5942 39.268C34.4316 39.493 34.2419 39.6954 34.0251 39.8772C33.8083 40.0591 33.5418 40.2114 33.2302 40.3319C33.6163 40.4297 33.9506 40.6024 34.2351 40.8502C34.5174 41.1003 34.8719 41.5641 35.2942 42.2438L37.9725 46.5973C37.5028 46.8769 37.0489 47.0156 36.6153 47.0156C36.1817 47.0156 35.8159 46.9406 35.52 46.7883C35.2242 46.636 34.9735 46.3973 34.7703 46.0699L33.5757 44.1216C33.3228 43.6965 33.0811 43.3009 32.853 42.9372C32.6227 42.5734 32.3833 42.2665 32.1304 42.0165C31.8775 41.7687 31.5749 41.5936 31.2248 41.4981V39.568C31.5139 39.4953 31.7668 39.3498 31.9836 39.1316C32.2004 38.9133 32.424 38.6246 32.6521 38.2654C32.8801 37.9085 33.1647 37.4788 33.5034 36.9809L34.2441 35.8875C34.5693 35.4146 34.8922 35.0713 35.2129 34.8576C35.5313 34.6462 35.8791 34.5393 36.254 34.5393C36.7372 34.5393 37.0895 34.6371 37.3131 34.8303C37.5367 35.0236 37.6473 35.335 37.6473 35.7601C37.6473 35.9307 37.6405 36.058 37.6292 36.1421C37.3041 36.1421 37.0195 36.2125 36.7779 36.3512C36.5363 36.4899 36.3127 36.7195 36.1094 37.0332L35.0774 38.5814L35.0729 38.5859Z" fill="white"/>
<path d="M49.2744 40.6821C49.2744 42.6985 48.7956 44.2763 47.8358 45.4175C46.8761 46.5587 45.5121 47.1293 43.7371 47.1293C42.5674 47.1293 41.5782 46.8679 40.7698 46.3473C39.9613 45.8244 39.3493 45.0788 38.9338 44.108C38.5183 43.1373 38.3105 42.0006 38.3105 40.7025C38.3105 39.4044 38.5386 38.2905 38.9971 37.3243C39.4555 36.3581 40.1013 35.6284 40.9324 35.1305C41.7657 34.6326 42.748 34.3848 43.8817 34.3848C45.607 34.3848 46.9371 34.9373 47.8697 36.0421C48.8046 37.147 49.2721 38.6951 49.2721 40.6866L49.2744 40.6821ZM46.7225 40.7003C46.7225 39.3158 46.4786 38.2496 45.9909 37.5039C45.5031 36.7582 44.794 36.3831 43.8658 36.3831C42.888 36.3831 42.1473 36.756 41.6415 37.5039C41.1356 38.2496 40.8827 39.3158 40.8827 40.7003C40.8827 42.0847 41.1356 43.1873 41.6415 43.9694C42.1473 44.7537 42.8722 45.1447 43.8116 45.1447C44.7511 45.1447 45.4737 44.7559 45.9728 43.9785C46.4741 43.201 46.7225 42.1097 46.7225 40.7003Z" fill="white"/>
<path d="M52.9469 34.5441C53.2833 34.5441 53.5701 34.6236 53.8072 34.7805C54.0421 34.9374 54.2386 35.1988 54.3944 35.5625L57.1449 42.0826L59.9136 35.6353C60.2387 34.9078 60.7401 34.5418 61.4153 34.5418C61.9708 34.5418 62.3863 34.5963 62.6641 34.7055L63.5335 46.8157H61.1827L60.6226 38.7293L58.1611 44.265H56.0813L53.6943 38.9658L53.1704 46.8157H50.8015L51.689 34.7055C52.039 34.5963 52.4613 34.5418 52.9559 34.5418L52.9469 34.5441Z" fill="white"/>
<path d="M67.5284 34.5441C67.8649 34.5441 68.1517 34.6236 68.3888 34.7805C68.6236 34.9374 68.8201 35.1988 68.9759 35.5625L71.7265 42.0826L74.4951 35.6353C74.8203 34.9078 75.3216 34.5418 75.9968 34.5418C76.5524 34.5418 76.9679 34.5963 77.2456 34.7055L78.1151 46.8157H75.7642L75.2042 38.7293L72.7427 44.265H70.6628L68.2759 38.9658L67.752 46.8157H65.3831L66.2705 34.7055C66.6206 34.5963 67.0429 34.5418 67.5374 34.5418L67.5284 34.5441Z" fill="white"/>
<path fill-rule="evenodd" clip-rule="evenodd" d="M13.8144 0.129604C12.2562 0.509257 10.8132 1.68004 10.0951 3.14637C9.44246 4.47629 9.27761 5.66754 9.55538 6.99291C10.0115 9.16398 11.7798 10.9986 13.9002 11.501C17.5134 12.3581 21.016 9.59365 21.0318 5.86759C21.0386 4.13529 20.5531 2.95995 19.302 1.69368C18.4551 0.836623 17.7325 0.409229 16.6711 0.136424C15.9756 -0.0431722 14.5326 -0.0454456 13.8144 0.129604ZM13.6135 16.1114C6.82515 17.1549 1.57923 22.2177 0.231059 29.0242C-0.0512218 30.4518 -0.0805791 33.2617 0.174603 34.6348C0.820463 38.1199 2.27929 40.9253 4.69562 43.335C6.28543 44.9196 7.90459 46.0085 9.82636 46.7906C13.417 48.2455 17.0392 48.3887 20.7834 47.2157L21.7815 46.9042V43.1964C21.7815 41.1571 21.759 39.4885 21.7319 39.4885C21.7048 39.4885 21.4134 39.5976 21.0837 39.7317C19.1958 40.5047 16.5989 40.4501 14.7381 39.6022C12.9428 38.7837 11.5494 37.4425 10.6732 35.6897C9.69764 33.7391 9.54183 31.4226 10.2419 29.2901C10.6348 28.0921 11.2671 27.11 12.3217 26.0551C13.1641 25.2117 13.3718 25.0639 14.379 24.5661C15.9914 23.7727 17.4141 23.509 19.0107 23.7067C19.7469 23.7977 20.9302 24.1296 21.6144 24.4365C21.7748 24.5092 21.7861 24.2978 21.7861 20.7832V17.0526L20.8737 16.7593C19.2004 16.2205 18.1887 16.0568 16.2804 16.0137C15.0678 15.9864 14.2458 16.0182 13.6157 16.1137L13.6135 16.1114Z" fill="url(#paint0_linear_15_2484)"/>
<defs>
<linearGradient id="paint0_linear_15_2484" x1="-26.9673" y1="-35.2782" x2="30.1734" y2="48.5849" gradientUnits="userSpaceOnUse">
<stop stop-color="#961BFF"/>
<stop offset="1" stop-color="#FA0D48"/>
</linearGradient>
</defs>
</svg>
