<svg width="32" height="32" viewBox="0 0 32 32" fill="none" xmlns="http://www.w3.org/2000/svg">
<path d="M15.2193 13.3335L5.37529 23.2242C5.11442 23.4833 4.90739 23.7915 4.76611 24.1309C4.62483 24.4704 4.55209 24.8345 4.55209 25.2022C4.55209 25.5699 4.62483 25.9339 4.76611 26.2734C4.90739 26.6129 5.11442 26.921 5.37529 27.1802C5.90245 27.7045 6.61575 27.9989 7.35929 27.9989C8.10282 27.9989 8.81612 27.7045 9.34329 27.1802L19.2193 17.3335M24.1612 20.3906L27.6092 16.9426C27.8592 16.6926 27.9996 16.3535 27.9996 16C27.9996 15.6464 27.8592 15.3073 27.6092 15.0573L17.4946 4.94263C17.2445 4.69267 16.9054 4.55225 16.5519 4.55225C16.1983 4.55225 15.8593 4.69267 15.6092 4.94263L12.1612 8.39063C11.9113 8.64066 11.7708 8.97974 11.7708 9.33329C11.7708 9.68685 11.9113 10.0259 12.1612 10.276L22.2759 20.3906C22.5259 20.6406 22.865 20.781 23.2186 20.781C23.5721 20.781 23.9112 20.6406 24.1612 20.3906Z" stroke="url(#paint0_linear_15_4611)" stroke-width="2" stroke-linecap="round" stroke-linejoin="round"/>
<defs>
<linearGradient id="paint0_linear_15_4611" x1="4.55209" y1="16.2755" x2="27.9996" y2="16.2755" gradientUnits="userSpaceOnUse">
<stop stop-color="#CD9DFF"/>
<stop offset="0.11" stop-color="#CF94F5"/>
<stop offset="0.29" stop-color="#D57DDC"/>
<stop offset="0.51" stop-color="#DF57B5"/>
<stop offset="0.61" stop-color="#E544A1"/>
<stop offset="0.73" stop-color="#EB3078"/>
<stop offset="0.99" stop-color="#FD0110"/>
<stop offset="1" stop-color="#E7002D"/>
</linearGradient>
</defs>
</svg>
