<svg width="32" height="32" viewBox="0 0 32 32" fill="none" xmlns="http://www.w3.org/2000/svg">
<path d="M9.33333 10.6668H22.6667M9.33333 16.0002H22.6667M9.33333 21.3335H22.6667M4 8.00016C4 7.29292 4.28095 6.61464 4.78105 6.11454C5.28115 5.61445 5.95942 5.3335 6.66667 5.3335H25.3333C26.0406 5.3335 26.7189 5.61445 27.219 6.11454C27.719 6.61464 28 7.29292 28 8.00016V24.0002C28 24.7074 27.719 25.3857 27.219 25.8858C26.7189 26.3859 26.0406 26.6668 25.3333 26.6668H6.66667C5.95942 26.6668 5.28115 26.3859 4.78105 25.8858C4.28095 25.3857 4 24.7074 4 24.0002V8.00016Z" stroke="url(#paint0_linear_15_4619)" stroke-width="2" stroke-linecap="round" stroke-linejoin="round"/>
<defs>
<linearGradient id="paint0_linear_15_4619" x1="4" y1="16.0002" x2="28" y2="16.0002" gradientUnits="userSpaceOnUse">
<stop stop-color="#CD9DFF"/>
<stop offset="0.11" stop-color="#CF94F5"/>
<stop offset="0.29" stop-color="#D57DDC"/>
<stop offset="0.51" stop-color="#DF57B5"/>
<stop offset="0.61" stop-color="#E544A1"/>
<stop offset="0.73" stop-color="#EB3078"/>
<stop offset="0.99" stop-color="#FD0110"/>
<stop offset="1" stop-color="#E7002D"/>
</linearGradient>
</defs>
</svg>
