<svg width="32" height="32" viewBox="0 0 32 32" fill="none" xmlns="http://www.w3.org/2000/svg">
<path d="M10.6667 28.0002H21.3333M16 22.6668V28.0002M16 22.6668C17.7681 22.6668 19.4638 21.9645 20.714 20.7142C21.9643 19.464 22.6667 17.7683 22.6667 16.0002V5.3335H9.33333V16.0002C9.33333 17.7683 10.0357 19.464 11.286 20.7142C12.5362 21.9645 14.2319 22.6668 16 22.6668ZM4 12.0002C4 12.7074 4.28095 13.3857 4.78105 13.8858C5.28115 14.3859 5.95942 14.6668 6.66667 14.6668C7.37391 14.6668 8.05219 14.3859 8.55229 13.8858C9.05238 13.3857 9.33333 12.7074 9.33333 12.0002C9.33333 11.2929 9.05238 10.6146 8.55229 10.1145C8.05219 9.61445 7.37391 9.3335 6.66667 9.3335C5.95942 9.3335 5.28115 9.61445 4.78105 10.1145C4.28095 10.6146 4 11.2929 4 12.0002ZM22.6667 12.0002C22.6667 12.7074 22.9476 13.3857 23.4477 13.8858C23.9478 14.3859 24.6261 14.6668 25.3333 14.6668C26.0406 14.6668 26.7189 14.3859 27.219 13.8858C27.719 13.3857 28 12.7074 28 12.0002C28 11.2929 27.719 10.6146 27.219 10.1145C26.7189 9.61445 26.0406 9.3335 25.3333 9.3335C24.6261 9.3335 23.9478 9.61445 23.4477 10.1145C22.9476 10.6146 22.6667 11.2929 22.6667 12.0002Z" stroke="url(#paint0_linear_15_4571)" stroke-width="2" stroke-linecap="round" stroke-linejoin="round"/>
<defs>
<linearGradient id="paint0_linear_15_4571" x1="4" y1="16.6668" x2="28" y2="16.6668" gradientUnits="userSpaceOnUse">
<stop stop-color="#CD9DFF"/>
<stop offset="0.11" stop-color="#CF94F5"/>
<stop offset="0.29" stop-color="#D57DDC"/>
<stop offset="0.51" stop-color="#DF57B5"/>
<stop offset="0.61" stop-color="#E544A1"/>
<stop offset="0.73" stop-color="#EB3078"/>
<stop offset="0.99" stop-color="#FD0110"/>
<stop offset="1" stop-color="#E7002D"/>
</linearGradient>
</defs>
</svg>
