<svg width="32" height="32" viewBox="0 0 32 32" fill="none" xmlns="http://www.w3.org/2000/svg">
<path d="M8.00001 10.6667C7.29277 10.6667 6.61449 10.3857 6.11439 9.88562C5.61429 9.38552 5.33334 8.70724 5.33334 8C5.33334 7.29276 5.61429 6.61448 6.11439 6.11438C6.61449 5.61428 7.29277 5.33333 8.00001 5.33333C8.70725 5.33333 9.38553 5.61428 9.88563 6.11438C10.3857 6.61448 10.6667 7.29276 10.6667 8C10.6667 8.70724 10.3857 9.38552 9.88563 9.88562C9.38553 10.3857 8.70725 10.6667 8.00001 10.6667ZM8.00001 10.6667V21.3333C8.00001 22.0406 8.28096 22.7189 8.78106 23.219C9.28115 23.719 9.95943 24 10.6667 24H17.3333M24 21.3333C24.7072 21.3333 25.3855 21.6143 25.8856 22.1144C26.3857 22.6145 26.6667 23.2928 26.6667 24C26.6667 24.7072 26.3857 25.3855 25.8856 25.8856C25.3855 26.3857 24.7072 26.6667 24 26.6667C23.2928 26.6667 22.6145 26.3857 22.1144 25.8856C21.6143 25.3855 21.3333 24.7072 21.3333 24C21.3333 23.2928 21.6143 22.6145 22.1144 22.1144C22.6145 21.6143 23.2928 21.3333 24 21.3333ZM24 21.3333V10.6667C24 9.95942 23.7191 9.28115 23.219 8.78105C22.7189 8.28095 22.0406 8 21.3333 8H14.6667M14.6667 8L18.6667 12M14.6667 8L18.6667 4M17.3333 24L13.3333 20M17.3333 24L13.3333 28" stroke="url(#paint0_linear_15_4583)" stroke-width="2" stroke-linecap="round" stroke-linejoin="round"/>
<defs>
<linearGradient id="paint0_linear_15_4583" x1="5.33334" y1="16" x2="26.6667" y2="16" gradientUnits="userSpaceOnUse">
<stop stop-color="#CD9DFF"/>
<stop offset="0.11" stop-color="#CF94F5"/>
<stop offset="0.29" stop-color="#D57DDC"/>
<stop offset="0.51" stop-color="#DF57B5"/>
<stop offset="0.61" stop-color="#E544A1"/>
<stop offset="0.73" stop-color="#EB3078"/>
<stop offset="0.99" stop-color="#FD0110"/>
<stop offset="1" stop-color="#E7002D"/>
</linearGradient>
</defs>
</svg>
