<svg width="32" height="32" viewBox="0 0 32 32" fill="none" xmlns="http://www.w3.org/2000/svg">
<path d="M4 28V25.3333C4 23.9189 4.5619 22.5623 5.5621 21.5621C6.56229 20.5619 7.91885 20 9.33333 20H14.6667C16.0812 20 17.4377 20.5619 18.4379 21.5621C19.4381 22.5623 20 23.9189 20 25.3333V28M21.3333 4.17318C22.4806 4.46691 23.4974 5.13411 24.2235 6.06959C24.9497 7.00507 25.3438 8.15562 25.3438 9.33985C25.3438 10.5241 24.9497 11.6746 24.2235 12.6101C23.4974 13.5456 22.4806 14.2128 21.3333 14.5065M28 28.0005V25.3339C27.9932 24.1567 27.5972 23.0149 26.8737 22.0864C26.1502 21.1579 25.1398 20.4948 24 20.2005M6.66667 9.33333C6.66667 10.7478 7.22857 12.1044 8.22876 13.1046C9.22896 14.1048 10.5855 14.6667 12 14.6667C13.4145 14.6667 14.771 14.1048 15.7712 13.1046C16.7714 12.1044 17.3333 10.7478 17.3333 9.33333C17.3333 7.91885 16.7714 6.56229 15.7712 5.5621C14.771 4.5619 13.4145 4 12 4C10.5855 4 9.22896 4.5619 8.22876 5.5621C7.22857 6.56229 6.66667 7.91885 6.66667 9.33333Z" stroke="url(#paint0_linear_15_4603)" stroke-width="2" stroke-linecap="round" stroke-linejoin="round"/>
<defs>
<linearGradient id="paint0_linear_15_4603" x1="4" y1="16.0003" x2="28" y2="16.0003" gradientUnits="userSpaceOnUse">
<stop stop-color="#CD9DFF"/>
<stop offset="0.11" stop-color="#CF94F5"/>
<stop offset="0.29" stop-color="#D57DDC"/>
<stop offset="0.51" stop-color="#DF57B5"/>
<stop offset="0.61" stop-color="#E544A1"/>
<stop offset="0.73" stop-color="#EB3078"/>
<stop offset="0.99" stop-color="#FD0110"/>
<stop offset="1" stop-color="#E7002D"/>
</linearGradient>
</defs>
</svg>
