<svg width="32" height="32" viewBox="0 0 32 32" fill="none" xmlns="http://www.w3.org/2000/svg">
<path d="M7.90626 9.24756L9.60626 14.9129M17.0823 22.3916L22.7503 24.0916M15.5729 16.4223L23.2516 8.74365M5.33334 7.3335C5.33334 7.59614 5.38507 7.85621 5.48558 8.09886C5.58609 8.34151 5.73341 8.56199 5.91913 8.74771C6.10485 8.93343 6.32533 9.08075 6.56798 9.18125C6.81063 9.28176 7.0707 9.3335 7.33334 9.3335C7.59599 9.3335 7.85606 9.28176 8.09871 9.18125C8.34136 9.08075 8.56184 8.93343 8.74756 8.74771C8.93327 8.56199 9.08059 8.34151 9.1811 8.09886C9.28161 7.85621 9.33334 7.59614 9.33334 7.3335C9.33334 7.07085 9.28161 6.81078 9.1811 6.56813C9.08059 6.32548 8.93327 6.105 8.74756 5.91928C8.56184 5.73356 8.34136 5.58625 8.09871 5.48574C7.85606 5.38523 7.59599 5.3335 7.33334 5.3335C7.0707 5.3335 6.81063 5.38523 6.56798 5.48574C6.32533 5.58625 6.10485 5.73356 5.91913 5.91928C5.73341 6.105 5.58609 6.32548 5.48558 6.56813C5.38507 6.81078 5.33334 7.07085 5.33334 7.3335ZM22.6667 7.3335C22.6667 7.86393 22.8774 8.37264 23.2525 8.74771C23.6275 9.12278 24.1362 9.3335 24.6667 9.3335C25.1971 9.3335 25.7058 9.12278 26.0809 8.74771C26.456 8.37264 26.6667 7.86393 26.6667 7.3335C26.6667 6.80306 26.456 6.29435 26.0809 5.91928C25.7058 5.54421 25.1971 5.3335 24.6667 5.3335C24.1362 5.3335 23.6275 5.54421 23.2525 5.91928C22.8774 6.29435 22.6667 6.80306 22.6667 7.3335ZM22.6667 24.6668C22.6667 25.1973 22.8774 25.706 23.2525 26.081C23.6275 26.4561 24.1362 26.6668 24.6667 26.6668C25.1971 26.6668 25.7058 26.4561 26.0809 26.081C26.456 25.706 26.6667 25.1973 26.6667 24.6668C26.6667 24.1364 26.456 23.6277 26.0809 23.2526C25.7058 22.8775 25.1971 22.6668 24.6667 22.6668C24.1362 22.6668 23.6275 22.8775 23.2525 23.2526C22.8774 23.6277 22.6667 24.1364 22.6667 24.6668ZM5.33334 20.6668C5.33334 22.2581 5.96548 23.7842 7.0907 24.9095C8.21592 26.0347 9.74204 26.6668 11.3333 26.6668C12.9246 26.6668 14.4508 26.0347 15.576 24.9095C16.7012 23.7842 17.3333 22.2581 17.3333 20.6668C17.3333 19.0755 16.7012 17.5494 15.576 16.4242C14.4508 15.299 12.9246 14.6668 11.3333 14.6668C9.74204 14.6668 8.21592 15.299 7.0907 16.4242C5.96548 17.5494 5.33334 19.0755 5.33334 20.6668Z" stroke="url(#paint0_linear_15_4581)" stroke-width="2" stroke-linecap="round" stroke-linejoin="round"/>
<defs>
<linearGradient id="paint0_linear_15_4581" x1="5.33334" y1="16.0002" x2="26.6667" y2="16.0002" gradientUnits="userSpaceOnUse">
<stop stop-color="#CD9DFF"/>
<stop offset="0.11" stop-color="#CF94F5"/>
<stop offset="0.29" stop-color="#D57DDC"/>
<stop offset="0.51" stop-color="#DF57B5"/>
<stop offset="0.61" stop-color="#E544A1"/>
<stop offset="0.73" stop-color="#EB3078"/>
<stop offset="0.99" stop-color="#FD0110"/>
<stop offset="1" stop-color="#E7002D"/>
</linearGradient>
</defs>
</svg>
