<svg width="32" height="32" viewBox="0 0 32 32" fill="none" xmlns="http://www.w3.org/2000/svg">
<path d="M10.6667 12.0002H21.3333M10.6667 17.3335H18.6667M24 5.3335C25.0609 5.3335 26.0783 5.75492 26.8284 6.50507C27.5786 7.25522 28 8.27263 28 9.3335V20.0002C28 21.061 27.5786 22.0784 26.8284 22.8286C26.0783 23.5787 25.0609 24.0002 24 24.0002H17.3333L10.6667 28.0002V24.0002H8C6.93913 24.0002 5.92172 23.5787 5.17157 22.8286C4.42143 22.0784 4 21.061 4 20.0002V9.3335C4 8.27263 4.42143 7.25522 5.17157 6.50507C5.92172 5.75492 6.93913 5.3335 8 5.3335H24Z" stroke="url(#paint0_linear_15_4573)" stroke-width="2" stroke-linecap="round" stroke-linejoin="round"/>
<defs>
<linearGradient id="paint0_linear_15_4573" x1="4" y1="16.6668" x2="28" y2="16.6668" gradientUnits="userSpaceOnUse">
<stop stop-color="#CD9DFF"/>
<stop offset="0.11" stop-color="#CF94F5"/>
<stop offset="0.29" stop-color="#D57DDC"/>
<stop offset="0.51" stop-color="#DF57B5"/>
<stop offset="0.61" stop-color="#E544A1"/>
<stop offset="0.73" stop-color="#EB3078"/>
<stop offset="0.99" stop-color="#FD0110"/>
<stop offset="1" stop-color="#E7002D"/>
</linearGradient>
</defs>
</svg>
