<svg width="32" height="32" viewBox="0 0 32 32" fill="none" xmlns="http://www.w3.org/2000/svg">
<path d="M9.33333 14.6668V25.3335C9.33333 25.6871 9.19286 26.0263 8.94281 26.2763C8.69276 26.5264 8.35362 26.6668 8 26.6668H5.33333C4.97971 26.6668 4.64057 26.5264 4.39052 26.2763C4.14048 26.0263 4 25.6871 4 25.3335V16.0002C4 15.6465 4.14048 15.3074 4.39052 15.0574C4.64057 14.8073 4.97971 14.6668 5.33333 14.6668H9.33333ZM9.33333 14.6668C10.7478 14.6668 12.1044 14.1049 13.1046 13.1047C14.1048 12.1045 14.6667 10.748 14.6667 9.3335V8.00016C14.6667 7.29292 14.9476 6.61464 15.4477 6.11454C15.9478 5.61445 16.6261 5.3335 17.3333 5.3335C18.0406 5.3335 18.7189 5.61445 19.219 6.11454C19.7191 6.61464 20 7.29292 20 8.00016V14.6668H24C24.7072 14.6668 25.3855 14.9478 25.8856 15.4479C26.3857 15.948 26.6667 16.6263 26.6667 17.3335L25.3333 24.0002C25.1416 24.8181 24.7778 25.5205 24.2969 26.0015C23.8159 26.4824 23.2438 26.7159 22.6667 26.6668H13.3333C12.2725 26.6668 11.2551 26.2454 10.5049 25.4953C9.75476 24.7451 9.33333 23.7277 9.33333 22.6668" stroke="url(#paint0_linear_15_4613)" stroke-width="2" stroke-linecap="round" stroke-linejoin="round"/>
<defs>
<linearGradient id="paint0_linear_15_4613" x1="4" y1="16.0034" x2="26.6667" y2="16.0034" gradientUnits="userSpaceOnUse">
<stop stop-color="#CD9DFF"/>
<stop offset="0.11" stop-color="#CF94F5"/>
<stop offset="0.29" stop-color="#D57DDC"/>
<stop offset="0.51" stop-color="#DF57B5"/>
<stop offset="0.61" stop-color="#E544A1"/>
<stop offset="0.73" stop-color="#EB3078"/>
<stop offset="0.99" stop-color="#FD0110"/>
<stop offset="1" stop-color="#E7002D"/>
</linearGradient>
</defs>
</svg>
