<svg width="32" height="32" viewBox="0 0 32 32" fill="none" xmlns="http://www.w3.org/2000/svg">
<path d="M2.66666 6.66667H5.99999L8.17599 13.196C8.70694 14.7892 9.72578 16.1749 11.0881 17.1568C12.4505 18.1386 14.0873 18.6669 15.7667 18.6667H19.3333C21.2782 18.6667 23.1435 17.8941 24.5188 16.5188C25.894 15.1435 26.6667 13.2783 26.6667 11.3333C26.6667 9.38841 25.894 7.52315 24.5188 6.14788C23.1435 4.77262 21.2782 4 19.3333 4H18.6667V12M7.99999 12H26.6667M12 22.6667L13.3333 18.6667M21.3333 18.6667L22.6667 22.6667M7.99999 25.3333C7.99999 26.0406 8.28094 26.7189 8.78104 27.219C9.28114 27.719 9.95941 28 10.6667 28C11.3739 28 12.0522 27.719 12.5523 27.219C13.0524 26.7189 13.3333 26.0406 13.3333 25.3333C13.3333 24.6261 13.0524 23.9478 12.5523 23.4477C12.0522 22.9476 11.3739 22.6667 10.6667 22.6667C9.95941 22.6667 9.28114 22.9476 8.78104 23.4477C8.28094 23.9478 7.99999 24.6261 7.99999 25.3333ZM21.3333 25.3333C21.3333 26.0406 21.6143 26.7189 22.1144 27.219C22.6145 27.719 23.2927 28 24 28C24.7072 28 25.3855 27.719 25.8856 27.219C26.3857 26.7189 26.6667 26.0406 26.6667 25.3333C26.6667 24.6261 26.3857 23.9478 25.8856 23.4477C25.3855 22.9476 24.7072 22.6667 24 22.6667C23.2927 22.6667 22.6145 22.9476 22.1144 23.4477C21.6143 23.9478 21.3333 24.6261 21.3333 25.3333Z" stroke="url(#paint0_linear_15_4617)" stroke-width="2" stroke-linecap="round" stroke-linejoin="round"/>
<defs>
<linearGradient id="paint0_linear_15_4617" x1="2.66666" y1="16" x2="26.6667" y2="16" gradientUnits="userSpaceOnUse">
<stop stop-color="#CD9DFF"/>
<stop offset="0.11" stop-color="#CF94F5"/>
<stop offset="0.29" stop-color="#D57DDC"/>
<stop offset="0.51" stop-color="#DF57B5"/>
<stop offset="0.61" stop-color="#E544A1"/>
<stop offset="0.73" stop-color="#EB3078"/>
<stop offset="0.99" stop-color="#FD0110"/>
<stop offset="1" stop-color="#E7002D"/>
</linearGradient>
</defs>
</svg>
