<svg width="94" height="94" viewBox="0 0 94 94" fill="none" xmlns="http://www.w3.org/2000/svg">
<g clip-path="url(#clip0_39_974)">
<path d="M65.0307 59.6388L61.2607 63.4087L66.3297 68.4777L70.0997 64.7077L65.0307 59.6388Z" fill="url(#paint0_linear_39_974)"/>
<path d="M29.6567 24.2569L25.8867 28.0269L30.199 32.3392L33.969 28.5692L29.6567 24.2569Z" fill="url(#paint1_linear_39_974)"/>
<path d="M35.6544 79.9534L13.9307 58.2297L19.783 50.3887L43.4954 74.1011L35.6544 79.9534Z" fill="url(#paint2_linear_39_974)"/>
<path d="M93.7823 7.86801C94.6345 3.33198 90.5625 -0.740039 86.0265 0.112243C66.7554 3.71077 48.3367 12.9628 33.4312 27.8682C27.1811 34.1183 21.9538 41.0029 17.6924 48.2946L31.6509 62.2531L45.6094 76.2116C52.9011 71.9502 59.7857 66.7228 66.0357 60.4728C80.9412 45.5673 90.1932 27.1485 93.7917 7.87748L93.7823 7.86801Z" fill="url(#paint3_linear_39_974)"/>
<path d="M35.7505 11.372C36.0251 9.88529 34.6993 8.55005 33.2031 8.82467C26.8868 10.0084 20.8355 13.0387 15.9491 17.9346C13.8942 19.9896 12.1801 22.2434 10.7881 24.6298L15.362 29.2037L19.9359 33.7776C22.3318 32.3761 24.5856 30.662 26.6311 28.6166C31.5175 23.7301 34.5573 17.6884 35.741 11.3626L35.7505 11.372Z" fill="url(#paint4_linear_39_974)"/>
<path d="M85.0669 60.6836C85.3415 59.1968 84.0157 57.8616 82.5195 58.1362C76.1937 59.3199 70.152 62.3503 65.2655 67.2462C63.2106 69.3011 61.4966 71.5549 60.1045 73.9413L64.6784 78.5152L69.2523 83.0891C71.6482 81.6876 73.902 79.9736 75.9475 77.9281C80.8339 73.0417 83.8737 66.9999 85.0574 60.6741L85.0669 60.6836Z" fill="url(#paint5_linear_39_974)"/>
<path d="M66.0111 60.4667C80.9166 45.5612 90.1686 27.1424 93.7671 7.87137C94.1933 5.59862 93.3883 3.44897 91.9111 1.97168L31.6357 62.247L45.5942 76.2055C52.886 71.9441 59.7705 66.7167 66.0206 60.4667H66.0111Z" fill="url(#paint6_linear_39_974)"/>
<path d="M10.4731 41.6491L0.671875 43.9029L2.93516 34.1112L11.6 25.4463L19.138 32.9748L10.4731 41.6491Z" fill="url(#paint7_linear_39_974)"/>
<path d="M12.5671 36.3251L6.96094 37.613L8.2583 32.0069L13.211 27.0542L17.5292 31.363L12.5671 36.3251Z" fill="url(#paint8_linear_39_974)"/>
<path d="M59.7798 90.9592L49.9785 93.2225L52.2418 83.4212L60.9067 74.7563L68.4446 82.2943L59.7798 90.9592Z" fill="url(#paint9_linear_39_974)"/>
<path d="M61.8737 85.6357L56.2676 86.9331L57.5649 81.3269L62.5271 76.3647L66.8359 80.6735L61.8737 85.6357Z" fill="url(#paint10_linear_39_974)"/>
<path d="M9.8032 77.4623L0.00195312 79.7256L2.26524 69.9243L13.9415 58.248L21.4795 65.7765L9.8032 77.4623Z" fill="url(#paint11_linear_39_974)"/>
<path d="M11.8971 72.1383L6.29102 73.4357L7.58838 67.8295L15.562 59.856L19.8707 64.1647L11.8971 72.1383Z" fill="url(#paint12_linear_39_974)"/>
<path d="M16.8843 84.5468L7.08301 86.81L9.34629 77.0088L21.0226 65.3325L28.5605 72.861L16.8843 84.5468Z" fill="url(#paint13_linear_39_974)"/>
<path d="M18.9782 79.2233L13.3721 80.5206L14.6694 74.9145L22.643 66.9409L26.9518 71.2497L18.9782 79.2233Z" fill="url(#paint14_linear_39_974)"/>
<path d="M23.9597 91.6304L14.168 93.8843L16.4218 84.0925L28.1075 72.4067L35.6455 79.9447L23.9597 91.6304Z" fill="url(#paint15_linear_39_974)"/>
<path d="M26.0622 86.3069L20.4561 87.5948L21.7439 81.9887L29.7175 74.0151L34.0358 78.3334L26.0622 86.3069Z" fill="url(#paint16_linear_39_974)"/>
<path d="M72.7364 15.6357C71.297 15.6357 69.9523 16.1945 68.939 17.2077C66.8367 19.31 66.8367 22.7097 68.939 24.8025C70.9656 26.8385 74.5073 26.8291 76.5243 24.8025C78.6266 22.7097 78.6266 19.3006 76.5243 17.2077C75.5111 16.1945 74.1664 15.6357 72.7364 15.6357Z" fill="url(#paint17_linear_39_974)"/>
<path d="M80.304 13.4468C76.2603 9.3937 69.2053 9.41263 65.1712 13.4468C60.995 17.623 60.995 24.4128 65.1712 28.5795C67.1883 30.6061 69.8777 31.714 72.7376 31.714C75.5975 31.714 78.2869 30.6061 80.304 28.5795C84.4801 24.4033 84.4801 17.6135 80.304 13.4468ZM76.535 24.8011C74.5084 26.8276 70.9667 26.8371 68.9497 24.8011C66.8474 22.7082 66.8474 19.2991 68.9497 17.2063C69.9629 16.193 71.3076 15.6343 72.747 15.6343C74.1865 15.6343 75.5312 16.193 76.535 17.2063C78.6373 19.2991 78.6373 22.7082 76.535 24.8011Z" fill="url(#paint18_linear_39_974)"/>
</g>
<defs>
<linearGradient id="paint0_linear_39_974" x1="61.2672" y1="64.0565" x2="70.1025" y2="64.0565" gradientUnits="userSpaceOnUse">
<stop offset="0.21" stop-color="#FA0D48"/>
<stop offset="0.85" stop-color="#B0066B"/>
</linearGradient>
<linearGradient id="paint1_linear_39_974" x1="25.8803" y1="28.3059" x2="33.9581" y2="28.3059" gradientUnits="userSpaceOnUse">
<stop offset="0.21" stop-color="#FA0D48"/>
<stop offset="0.85" stop-color="#B0066B"/>
</linearGradient>
<linearGradient id="paint2_linear_39_974" x1="13.9307" y1="65.171" x2="43.4954" y2="65.171" gradientUnits="userSpaceOnUse">
<stop stop-color="#CD9DFF"/>
<stop offset="0.11" stop-color="#CF94F5"/>
<stop offset="0.29" stop-color="#D57DDC"/>
<stop offset="0.51" stop-color="#DF57B5"/>
<stop offset="0.61" stop-color="#E544A1"/>
<stop offset="0.73" stop-color="#EB3078"/>
<stop offset="0.99" stop-color="#FD0110"/>
<stop offset="1" stop-color="#E7002D"/>
</linearGradient>
<linearGradient id="paint3_linear_39_974" x1="17.6924" y1="38.0956" x2="93.8959" y2="38.0956" gradientUnits="userSpaceOnUse">
<stop offset="0.21" stop-color="#FA0D48"/>
<stop offset="0.85" stop-color="#B0066B"/>
</linearGradient>
<linearGradient id="paint4_linear_39_974" x1="10.7881" y1="21.2869" x2="35.7884" y2="21.2869" gradientUnits="userSpaceOnUse">
<stop stop-color="#CD9DFF"/>
<stop offset="0.11" stop-color="#CF94F5"/>
<stop offset="0.29" stop-color="#D57DDC"/>
<stop offset="0.51" stop-color="#DF57B5"/>
<stop offset="0.61" stop-color="#E544A1"/>
<stop offset="0.73" stop-color="#EB3078"/>
<stop offset="0.99" stop-color="#FD0110"/>
<stop offset="1" stop-color="#E7002D"/>
</linearGradient>
<linearGradient id="paint5_linear_39_974" x1="60.1045" y1="70.5985" x2="85.0953" y2="70.5985" gradientUnits="userSpaceOnUse">
<stop stop-color="#CD9DFF"/>
<stop offset="0.11" stop-color="#CF94F5"/>
<stop offset="0.29" stop-color="#D57DDC"/>
<stop offset="0.51" stop-color="#DF57B5"/>
<stop offset="0.61" stop-color="#E544A1"/>
<stop offset="0.73" stop-color="#EB3078"/>
<stop offset="0.99" stop-color="#FD0110"/>
<stop offset="1" stop-color="#E7002D"/>
</linearGradient>
<linearGradient id="paint6_linear_39_974" x1="31.6357" y1="39.0838" x2="93.8902" y2="39.0838" gradientUnits="userSpaceOnUse">
<stop offset="0.21" stop-color="#FA0D48"/>
<stop offset="0.85" stop-color="#B0066B"/>
</linearGradient>
<linearGradient id="paint7_linear_39_974" x1="0.671875" y1="34.6699" x2="19.138" y2="34.6699" gradientUnits="userSpaceOnUse">
<stop offset="0.21" stop-color="#FA0D48"/>
<stop offset="0.85" stop-color="#B0066B"/>
</linearGradient>
<linearGradient id="paint8_linear_39_974" x1="6.96094" y1="32.3384" x2="17.5292" y2="32.3384" gradientUnits="userSpaceOnUse">
<stop offset="0.21" stop-color="#FA0D48"/>
<stop offset="0.85" stop-color="#B0066B"/>
</linearGradient>
<linearGradient id="paint9_linear_39_974" x1="49.9785" y1="83.9894" x2="68.4446" y2="83.9894" gradientUnits="userSpaceOnUse">
<stop offset="0.21" stop-color="#FA0D48"/>
<stop offset="0.85" stop-color="#B0066B"/>
</linearGradient>
<linearGradient id="paint10_linear_39_974" x1="56.2676" y1="81.6489" x2="66.8359" y2="81.6489" gradientUnits="userSpaceOnUse">
<stop offset="0.21" stop-color="#FA0D48"/>
<stop offset="0.85" stop-color="#B0066B"/>
</linearGradient>
<linearGradient id="paint11_linear_39_974" x1="0.00195312" y1="68.9868" x2="21.4795" y2="68.9868" gradientUnits="userSpaceOnUse">
<stop offset="0.21" stop-color="#FA0D48"/>
<stop offset="0.85" stop-color="#B0066B"/>
</linearGradient>
<linearGradient id="paint12_linear_39_974" x1="6.29102" y1="66.6458" x2="19.8707" y2="66.6458" gradientUnits="userSpaceOnUse">
<stop offset="0.21" stop-color="#FA0D48"/>
<stop offset="0.85" stop-color="#B0066B"/>
</linearGradient>
<linearGradient id="paint13_linear_39_974" x1="7.08301" y1="76.0713" x2="28.5605" y2="76.0713" gradientUnits="userSpaceOnUse">
<stop offset="0.21" stop-color="#FA0D48"/>
<stop offset="0.85" stop-color="#B0066B"/>
</linearGradient>
<linearGradient id="paint14_linear_39_974" x1="13.3721" y1="73.7308" x2="26.9518" y2="73.7308" gradientUnits="userSpaceOnUse">
<stop offset="0.21" stop-color="#FA0D48"/>
<stop offset="0.85" stop-color="#B0066B"/>
</linearGradient>
<linearGradient id="paint15_linear_39_974" x1="14.168" y1="83.1455" x2="35.6455" y2="83.1455" gradientUnits="userSpaceOnUse">
<stop offset="0.21" stop-color="#FA0D48"/>
<stop offset="0.85" stop-color="#B0066B"/>
</linearGradient>
<linearGradient id="paint16_linear_39_974" x1="20.4561" y1="80.805" x2="34.0358" y2="80.805" gradientUnits="userSpaceOnUse">
<stop offset="0.21" stop-color="#FA0D48"/>
<stop offset="0.85" stop-color="#B0066B"/>
</linearGradient>
<linearGradient id="paint17_linear_39_974" x1="67.367" y1="20.9862" x2="78.1058" y2="20.9862" gradientUnits="userSpaceOnUse">
<stop offset="0.21" stop-color="#FA0D48"/>
<stop offset="0.85" stop-color="#B0066B"/>
</linearGradient>
<linearGradient id="paint18_linear_39_974" x1="62.0367" y1="21.0605" x2="83.429" y2="21.0605" gradientUnits="userSpaceOnUse">
<stop stop-color="#CD9DFF"/>
<stop offset="0.11" stop-color="#CF94F5"/>
<stop offset="0.29" stop-color="#D57DDC"/>
<stop offset="0.51" stop-color="#DF57B5"/>
<stop offset="0.61" stop-color="#E544A1"/>
<stop offset="0.73" stop-color="#EB3078"/>
<stop offset="0.99" stop-color="#FD0110"/>
<stop offset="1" stop-color="#E7002D"/>
</linearGradient>
<clipPath id="clip0_39_974">
<rect width="93.8931" height="93.8837" fill="white"/>
</clipPath>
</defs>
</svg>
