<svg width="632" height="884" viewBox="0 0 632 884" fill="none" xmlns="http://www.w3.org/2000/svg">
<g filter="url(#filter0_d_18_710)">
<path d="M420.082 788.005H419.838L206.306 721.985C205.573 721.744 205.329 721.021 205.573 720.539C205.817 719.816 206.55 719.575 207.038 719.816L420.571 785.836C421.303 786.077 421.547 786.8 421.303 787.282C421.059 787.523 420.571 788.005 420.082 788.005Z" fill="white"/>
<path d="M314.908 152.628C314.42 152.628 313.932 152.387 313.688 151.905C313.444 151.182 313.932 150.7 314.42 150.46L366.888 133.834C367.62 133.593 368.108 134.075 368.352 134.557C368.596 135.039 368.108 135.762 367.62 136.003L315.152 152.628C315.152 152.628 315.152 152.628 314.908 152.628Z" fill="white"/>
<path d="M422.277 783.896C422.033 783.896 421.789 783.896 421.789 783.655C421.301 783.414 421.057 782.692 421.057 782.21L530.631 411.637L525.262 402.722L313.679 152.14C313.191 151.658 313.435 150.935 313.923 150.453C314.411 149.972 315.143 150.212 315.631 150.694L517.94 390.434L369.076 136.72L267.8 98.6504L99.9 316.946L132.113 323.692C132.845 323.933 133.089 324.415 133.089 325.138C132.845 325.861 132.357 326.102 131.625 326.102L97.4596 318.874C96.9715 318.874 96.7274 318.392 96.4834 318.151C96.2394 317.91 96.4834 317.428 96.7274 316.946L266.335 96.4819C266.823 96 267.311 96 267.8 96L370.296 134.551C370.54 134.551 370.784 134.792 371.028 135.033L527.702 401.277L535.755 410.673C535.999 410.914 535.999 411.396 535.999 411.637L462.787 732.093C462.787 732.334 462.787 732.334 462.543 732.575L423.497 783.174C423.009 783.655 422.765 783.896 422.277 783.896ZM533.071 412.842L425.449 776.909L460.347 731.611L533.071 412.842Z" fill="white"/>
<path d="M100.149 567.094C99.4165 567.094 98.9285 566.612 98.9285 565.889L96 318.201C96 317.478 96.4881 316.996 97.2202 316.996C97.9523 316.996 98.4404 317.478 98.4404 318.201L101.125 549.746L133.094 322.297C133.094 322.056 133.338 321.815 133.338 321.574L313.194 151.469L266.339 99.1845C265.851 98.7027 265.851 97.9798 266.339 97.4979C266.827 97.0161 267.559 97.0161 268.047 97.4979L315.635 150.505C316.123 150.987 316.123 151.71 315.635 152.192L135.534 323.019L101.369 565.889C101.369 566.612 100.881 567.094 100.149 567.094Z" fill="white"/>
<path d="M432.022 749.005L202.383 689.49C202.139 689.49 202.139 689.249 201.894 689.249L99.1547 566.606L101.107 565.16L126.731 602.99C135.272 615.519 143.814 628.289 152.111 641.06L177.491 679.129L202.871 717.199L202.139 717.44L202.383 693.345C202.383 693.345 202.383 693.345 202.627 693.345L202.871 717.44C202.871 717.681 202.627 717.922 202.383 717.922C202.139 717.922 202.139 717.922 202.139 717.681L176.515 680.093L150.647 642.264C142.105 629.735 133.32 617.206 124.779 604.435L99.1547 566.606C98.6666 566.124 98.9107 565.401 99.3988 564.92C99.8868 564.679 100.619 564.679 101.107 565.16L203.359 688.286L202.871 688.045L432.022 749.005C432.266 749.005 432.266 749.005 432.022 749.005C432.022 749.246 432.266 749.005 432.022 749.005Z" fill="white"/>
<path d="M434.475 744.175L316.116 714.779L286.588 707.551L257.059 699.841C237.536 694.54 217.769 689.48 198.246 683.697C198.246 683.697 198.246 683.697 198.246 683.456C198.246 683.456 198.246 683.456 198.49 683.456C218.257 687.793 238.024 692.612 257.791 697.431L287.32 704.901L316.848 712.611L434.475 744.175C434.719 744.175 434.719 744.175 434.475 744.175C434.475 744.416 434.719 744.175 434.475 744.175Z" fill="white"/>
<path d="M452.288 682.746C451.556 682.746 451.068 682.024 451.068 681.301L487.673 357.464C487.673 356.741 488.406 356.259 489.138 356.5C489.87 356.5 490.358 357.223 490.114 357.946L453.508 681.783C453.508 682.265 453.02 682.746 452.288 682.746Z" fill="white"/>
<path d="M197.747 667.051C192.135 640.305 186.766 613.319 181.641 586.574L166.023 505.856L151.136 425.138L143.815 384.658L136.738 344.179L145.036 384.417L153.089 424.656L168.707 505.374L183.593 586.092C188.23 613.078 193.111 640.065 197.747 667.051Z" fill="white"/>
<path d="M102.834 446.825C107.471 426.104 112.107 405.382 116.744 384.66L130.898 322.496C130.898 322.496 130.898 322.255 131.142 322.255L164.819 266.114L198.741 210.214L232.906 154.314C244.375 135.52 255.845 116.967 267.315 98.4136C256.333 117.208 245.352 136.002 234.126 154.796L200.449 210.937L166.772 267.078L132.851 322.978L133.095 322.737L117.964 384.66C113.084 405.382 107.715 426.104 102.834 446.825Z" fill="white"/>
<path d="M181.972 561.27L262.016 676.203L261.528 675.721L305.455 684.636L349.382 693.551C364.024 696.442 378.666 699.816 393.308 702.948C407.951 706.08 422.593 709.454 436.991 712.827C436.991 712.827 436.991 712.827 436.991 713.068C436.991 713.068 436.991 713.068 436.747 713.068C422.105 710.417 407.219 707.526 392.576 704.875C377.934 701.984 363.292 699.093 348.65 696.201L304.723 687.045L260.796 677.889C260.552 677.889 260.308 677.648 260.308 677.407L181.972 561.27C181.728 561.27 181.728 561.27 181.972 561.27Z" fill="white"/>
<path d="M231.937 338.934C232.181 338.934 232.425 338.934 232.425 338.934C232.669 338.934 232.669 339.175 232.669 339.416L234.133 344.235L235.841 339.175C236.085 338.693 236.329 338.211 236.817 338.211C237.061 338.211 237.305 338.211 237.549 338.211L237.793 347.368L236.329 347.609L236.085 341.343L234.377 345.681L233.157 345.922L231.693 342.066L231.204 348.091L229.74 348.332L230.472 338.934C231.204 339.175 231.449 339.175 231.937 338.934Z" fill="white"/>
<path d="M241.94 345.892C242.184 345.892 242.428 345.892 242.672 345.651C242.916 345.651 242.916 345.41 243.16 345.41C243.404 345.169 243.404 345.169 243.404 344.928C243.404 345.169 243.648 345.169 243.648 345.41C243.648 345.651 243.648 345.892 243.648 345.892C243.648 346.133 243.648 346.374 243.404 346.374C243.16 346.615 242.916 346.615 242.672 346.856C242.428 347.097 241.94 347.097 241.696 347.097C240.72 347.097 239.988 347.097 239.744 346.374C239.256 345.892 239.012 344.928 239.012 343.723C239.012 343 239.256 342.277 239.5 341.796C239.744 341.314 239.988 340.832 240.476 340.591C240.964 340.35 241.208 340.109 241.696 340.109C242.428 340.109 242.916 340.109 243.404 340.591C243.892 341.073 243.892 341.796 243.892 342.759C243.892 343.241 243.892 343.482 243.892 343.723L240.476 344.205C240.476 344.687 240.72 345.169 240.964 345.41C240.964 345.892 241.452 345.892 241.94 345.892ZM242.428 343C242.428 342.518 242.428 342.036 242.184 341.796C241.94 341.555 241.696 341.555 241.452 341.555C241.208 341.555 240.964 341.796 240.72 342.036C240.476 342.277 240.476 342.759 240.476 343.241L242.428 343Z" fill="white"/>
<path d="M246.339 341.056C246.583 341.297 246.583 341.538 246.583 341.779C246.583 342.02 246.827 342.02 246.827 342.261L247.071 342.502V343.707C246.827 343.707 246.827 343.948 246.583 343.948C246.339 344.189 246.339 344.189 246.339 344.43C246.339 344.671 246.095 344.671 246.095 344.912C246.095 345.153 245.851 345.153 245.851 345.394L245.363 346.358C245.363 346.599 245.119 346.84 244.874 346.84C244.63 346.84 244.63 347.081 244.386 347.081C244.142 347.081 243.898 347.081 243.654 346.84L244.874 344.43C245.119 344.189 245.119 343.948 245.363 343.707C245.607 343.466 245.851 343.466 245.851 343.225C245.607 343.225 245.363 342.984 245.119 342.502L244.63 341.779C244.386 341.538 244.142 341.297 243.898 341.297C243.898 340.815 243.898 340.574 244.142 340.574C244.386 340.333 244.386 340.333 244.874 340.333C245.119 340.333 245.363 340.333 245.363 340.333C245.607 340.333 245.607 340.574 245.851 341.056H246.339ZM247.803 339.61C248.047 339.61 248.047 339.61 248.291 339.369C248.535 339.369 248.779 339.369 249.023 339.61C249.267 339.851 249.267 340.092 249.267 340.333L249.023 346.117L247.559 346.358L247.803 339.61ZM250.731 340.092C250.975 339.61 251.219 339.369 251.219 339.369C251.463 339.128 251.464 339.128 251.708 339.128C251.952 339.128 252.196 339.128 252.44 339.369C252.684 339.61 252.684 339.851 252.684 340.092C252.44 340.092 252.196 340.333 251.952 340.815L251.464 341.779C251.219 342.261 250.975 342.502 250.731 342.743C250.975 342.743 251.219 342.984 251.464 342.984C251.708 343.225 251.708 343.466 251.952 343.707L252.928 345.876C252.684 346.117 252.44 346.358 252.196 346.358C251.952 346.358 251.708 346.358 251.464 346.358C251.219 346.358 251.219 346.117 250.975 345.876L250.731 345.153C250.731 345.153 250.731 344.912 250.487 344.671C250.487 344.43 250.243 344.43 250.243 344.189C250.243 343.948 249.999 343.948 249.999 343.707C249.999 343.707 249.755 343.466 249.511 343.466V342.02C249.755 342.02 249.755 341.779 249.755 341.779C249.755 341.538 249.999 341.538 249.999 341.297C249.999 341.056 250.243 340.815 250.487 340.574L250.731 340.092Z" fill="white"/>
<path d="M253.16 344.235H253.648C253.892 343.994 253.892 343.753 253.892 343.512C253.892 343.271 254.136 343.03 254.136 342.548C254.136 342.066 254.38 341.343 254.38 340.379L254.624 338.693L258.773 338.211L258.529 343.753H259.261V347.368L257.797 347.609V345.681L254.38 346.163V348.091L252.916 348.332L253.16 344.235ZM255.6 341.825C255.6 342.789 255.356 343.512 255.112 343.994L257.065 343.753V339.897L255.6 340.138V341.825Z" fill="white"/>
<path d="M263.178 345.682C262.69 347.128 261.958 347.851 260.738 348.092C260.25 348.092 260.006 348.092 259.762 348.092C259.518 348.092 259.518 347.851 259.518 347.61C259.518 347.369 259.762 347.128 259.762 346.646L260.006 346.887C260.25 346.887 260.25 346.887 260.494 346.887C260.738 346.887 260.982 346.646 261.226 346.646C261.47 346.405 261.47 346.164 261.714 345.682L261.958 344.959H261.226L259.518 338.453C259.762 338.212 260.006 338.212 260.494 338.212C260.738 338.212 260.982 338.212 260.982 338.453C261.226 338.694 261.226 338.694 261.226 339.176L262.202 343.514L263.178 339.417C263.422 338.935 263.422 338.453 263.666 338.212C263.91 337.971 264.154 337.73 264.398 337.73C264.642 337.73 264.886 337.73 265.13 337.73L263.178 345.682Z" fill="white"/>
<path d="M270.92 343.427L269.211 343.668V340.776L267.259 341.017V343.909L265.551 344.15L265.795 337.162C265.795 337.162 265.795 337.162 266.039 337.162C266.283 337.162 266.283 337.162 266.283 337.162C266.771 337.162 267.015 337.162 267.015 337.403C267.259 337.644 267.259 337.885 267.259 338.125V339.571L269.211 339.33V336.68C269.211 336.68 269.211 336.68 269.455 336.68C269.699 336.68 269.699 336.68 269.699 336.68C270.188 336.68 270.432 336.68 270.432 336.921C270.676 337.162 270.676 337.403 270.676 337.644L270.92 343.427Z" fill="white"/>
<path d="M277.076 341.085C277.076 341.808 277.076 342.531 277.32 342.772C277.076 343.013 276.832 343.013 276.588 343.013C276.344 343.013 276.1 343.013 275.856 343.013C275.612 343.013 275.612 342.772 275.612 342.531C275.368 342.772 275.124 343.013 274.88 343.254C274.636 343.495 274.148 343.495 273.904 343.495C273.416 343.495 272.927 343.495 272.683 343.013C272.439 342.772 272.195 342.049 272.195 341.567C272.195 340.844 272.439 340.121 272.927 339.639C273.416 339.157 274.148 338.916 275.124 338.675C275.368 338.675 275.368 338.675 275.612 338.675V338.434C275.612 337.953 275.612 337.712 275.368 337.712C275.124 337.471 274.88 337.471 274.636 337.471C274.392 337.471 274.148 337.471 273.904 337.712C273.66 337.953 273.416 337.953 272.927 338.434C272.927 338.193 272.683 338.193 272.683 337.953C272.683 337.712 272.683 337.712 272.683 337.471C272.683 337.23 272.927 336.989 273.171 336.989C273.415 336.748 273.66 336.507 274.148 336.507C274.392 336.266 274.88 336.266 275.368 336.266C276.1 336.266 276.832 336.266 277.32 336.748C277.808 337.23 277.808 337.712 277.808 338.675L277.076 341.085ZM275.612 339.398C275.368 339.398 275.368 339.398 275.612 339.398C275.368 339.398 275.368 339.398 275.368 339.398C274.88 339.639 274.392 339.639 274.148 339.88C273.904 340.121 273.66 340.362 273.66 340.844C273.66 341.085 273.66 341.326 273.904 341.567C274.148 341.808 274.148 341.808 274.636 341.808C274.88 341.808 275.124 341.567 275.368 341.567C275.612 341.326 275.856 341.085 275.856 341.085L275.612 339.398Z" fill="white"/>
<path d="M279.993 336.021C280.237 335.781 280.481 335.54 280.725 335.299C280.969 335.058 281.458 335.058 281.702 334.817C282.434 334.817 282.922 335.058 283.41 335.54C283.898 336.021 283.898 336.985 283.898 338.19C283.898 339.154 283.654 339.877 283.654 340.359C283.41 341.081 283.166 341.563 282.678 341.804C282.19 342.045 281.946 342.286 281.214 342.527C280.969 342.527 280.725 342.527 280.481 342.527C280.237 342.527 279.993 342.527 279.993 342.286C279.749 342.286 279.749 342.045 279.749 342.045V345.9L278.041 346.141L278.285 335.781H278.529C278.773 335.781 278.773 335.781 279.017 335.781C279.749 335.299 279.993 335.54 279.993 336.021ZM282.19 338.431C282.19 337.708 282.19 337.226 281.946 336.744C281.702 336.503 281.458 336.262 280.969 336.262C280.725 336.262 280.481 336.503 280.237 336.503C279.993 336.744 279.993 336.744 279.993 336.985V340.118C279.993 340.118 280.237 340.359 280.481 340.359C280.725 340.359 280.725 340.359 280.969 340.359C281.946 340.84 282.19 339.877 282.19 338.431Z" fill="white"/>
<path d="M290.99 337.432C290.99 338.637 290.746 339.601 290.013 340.324C289.525 341.047 288.793 341.529 287.817 341.529C286.841 341.529 286.109 341.288 285.621 340.806C285.133 340.083 284.889 339.36 284.889 338.155C284.889 337.432 285.133 336.709 285.377 335.986C285.621 335.263 286.109 334.781 286.353 334.54C286.841 334.058 287.329 334.058 288.061 333.817C289.037 333.577 289.769 333.817 290.257 334.54C290.746 335.263 290.99 336.227 290.99 337.432ZM289.281 337.673C289.281 336.227 289.037 335.504 288.061 335.504C287.573 335.504 287.329 335.745 287.085 336.227C286.841 336.709 286.841 337.191 286.597 337.914C286.597 338.637 286.597 339.119 286.841 339.601C287.085 340.083 287.329 340.083 287.817 340.083C288.793 340.083 289.037 339.119 289.281 337.673Z" fill="white"/>
<path d="M291.184 339.374H291.916C292.16 339.133 292.16 338.892 292.404 338.651C292.404 338.41 292.648 337.928 292.648 337.687C292.648 337.205 292.892 336.483 292.892 335.278L293.136 333.591L297.773 332.868L297.529 338.651H298.261V342.266L296.552 342.507V340.338L292.892 340.82V342.989L291.184 343.23V339.374ZM294.112 336.964C294.112 337.928 293.868 338.651 293.624 339.374L295.82 339.133V335.037L294.356 335.278L294.112 336.964Z" fill="white"/>
<path d="M304.931 339.38L303.223 339.621V336.729L301.027 336.97V339.862L299.318 340.103L299.562 332.632C299.562 332.632 299.562 332.632 299.806 332.632C300.05 332.632 300.05 332.632 300.294 332.632C300.783 332.632 301.027 332.632 301.271 332.873C301.515 333.114 301.515 333.355 301.515 333.837V335.524L303.711 335.283V332.391C303.711 332.391 303.711 332.391 303.955 332.391C304.199 332.391 304.199 332.391 304.443 332.391C304.931 332.391 305.175 332.391 305.419 332.632C305.663 332.873 305.663 333.114 305.663 333.596L304.931 339.38Z" fill="white"/>
<path d="M311.484 336.733C311.484 337.456 311.484 338.179 311.728 338.42C311.484 338.661 310.996 338.661 310.752 338.661C310.508 338.661 310.264 338.661 310.02 338.661C309.776 338.661 309.776 338.42 309.776 338.179C309.532 338.42 309.288 338.661 308.799 338.902C308.555 339.143 308.067 339.143 307.579 339.143C307.091 339.143 306.359 339.143 306.115 338.661C305.627 338.42 305.627 337.697 305.627 336.974C305.627 336.251 305.871 335.528 306.603 335.046C307.091 334.564 308.067 334.082 309.044 334.082C309.288 334.082 309.288 334.082 309.532 334.082V333.841C309.532 333.359 309.532 333.118 309.288 333.118C309.043 332.877 308.799 332.877 308.311 332.877C308.067 332.877 307.823 332.877 307.579 333.118C307.335 333.359 306.847 333.6 306.603 333.841C306.603 333.6 306.359 333.6 306.359 333.359C306.359 333.118 306.359 332.877 306.359 332.877C306.359 332.636 306.603 332.395 306.847 332.154C307.091 331.913 307.335 331.672 307.823 331.672C308.311 331.432 308.555 331.432 309.044 331.432C310.02 331.191 310.752 331.432 310.996 331.913C311.484 332.395 311.484 333.118 311.484 334.082V336.733ZM309.776 335.046C309.532 335.046 309.532 335.046 309.288 335.046C308.555 335.287 308.311 335.287 307.823 335.528C307.579 335.769 307.335 336.251 307.335 336.492C307.335 336.733 307.335 336.974 307.579 337.215C307.823 337.456 308.067 337.456 308.311 337.456C308.555 337.456 308.799 337.215 309.288 336.974C309.532 336.733 309.776 336.492 309.776 336.492V335.046Z" fill="white"/>
<path d="M318.331 337.689L316.623 337.93V335.279H315.891C315.647 335.279 315.403 335.279 315.403 335.52C315.159 335.52 315.159 335.761 315.159 336.002C315.159 336.243 314.915 336.484 314.915 336.725L314.671 337.689C314.427 338.171 313.938 338.412 313.45 338.653C313.206 338.653 312.962 338.653 312.718 338.412L313.45 336.484C313.694 336.002 313.938 335.52 314.427 335.279C313.694 335.038 313.206 334.315 313.45 333.351C313.45 332.629 313.694 331.906 314.182 331.424C314.671 330.942 315.403 330.701 316.135 330.46L319.063 329.978L318.331 337.689ZM316.623 331.906H315.647C315.403 331.906 315.159 332.147 314.915 332.147C314.671 332.388 314.671 332.629 314.671 332.87C314.671 333.111 314.671 333.351 314.915 333.592C315.159 333.833 315.403 333.833 315.891 333.833H316.867L316.623 331.906Z" fill="white"/>
<path d="M328.325 328.744L328.081 336.455L326.129 336.696L326.373 330.672L324.177 330.912L323.933 336.696L321.98 336.937L322.225 329.226L328.325 328.744Z" fill="white"/>
<path d="M331.74 329.003C331.984 328.762 332.228 328.521 332.472 328.28C332.716 328.04 333.204 328.04 333.692 327.799C334.668 327.799 335.156 328.04 335.644 328.521C336.132 329.244 336.376 329.967 336.376 331.413C336.376 332.377 336.132 333.099 335.888 333.822C335.644 334.545 335.4 335.027 334.912 335.268C334.424 335.75 333.936 335.991 333.448 335.991C333.204 335.991 332.96 335.991 332.716 335.991C332.472 335.991 332.228 335.75 332.228 335.75C331.984 335.75 331.984 335.509 331.984 335.509V339.605L330.031 339.846L330.275 328.762H330.519C330.763 328.762 330.763 328.762 331.007 328.762C331.251 328.28 331.495 328.521 331.74 329.003ZM334.18 331.654C334.18 330.931 334.18 330.208 333.936 329.967C333.692 329.726 333.448 329.485 332.96 329.485C332.716 329.485 332.472 329.726 332.228 329.726C331.984 329.967 331.984 330.208 331.984 330.449V333.822C331.984 334.063 332.228 334.063 332.472 334.063C332.716 334.063 332.96 334.063 332.96 334.063C333.692 334.304 334.18 333.34 334.18 331.654Z" fill="white"/>
<path d="M341.03 333.652C341.274 333.652 341.518 333.411 341.762 333.411C342.006 333.17 342.25 333.17 342.25 332.929C342.494 332.688 342.494 332.688 342.738 332.447C342.982 332.688 342.982 332.929 343.226 333.17C343.226 333.411 343.47 333.652 343.47 333.652C343.47 333.893 343.226 334.134 342.982 334.375C342.738 334.616 342.494 334.857 342.006 334.857C341.518 335.098 341.274 335.098 340.786 335.098C339.565 335.339 338.589 335.098 338.101 334.375C337.369 333.652 337.125 332.688 337.125 331.242C337.125 330.519 337.369 329.796 337.613 329.074C337.857 328.351 338.345 327.869 338.833 327.628C339.321 327.146 339.809 326.905 340.542 326.905C341.518 326.664 342.25 326.905 342.738 327.628C343.226 328.11 343.47 329.074 343.47 330.037C343.47 330.519 343.47 331.001 343.47 331.001L339.077 331.483C339.077 332.206 339.321 332.688 339.565 332.929C340.053 333.411 340.542 333.652 341.03 333.652ZM341.762 330.037C341.762 329.314 341.762 329.074 341.518 328.833C341.274 328.592 341.03 328.351 340.542 328.592C340.053 328.592 339.809 328.833 339.565 329.315C339.321 329.555 339.077 330.037 339.077 330.76L341.762 330.037Z" fill="white"/>
<path d="M345.9 326.349C346.144 326.349 346.388 326.349 346.632 326.349C346.876 326.349 346.876 326.59 347.12 326.831L348.584 330.204L350.048 326.349C350.048 326.108 350.292 325.867 350.537 325.626C350.781 325.385 351.025 325.385 351.269 325.385C351.513 325.385 351.513 325.385 351.757 325.385C352.001 325.385 352.001 325.385 352.245 325.385L352.489 333.096L350.537 333.337V328.277C350.537 328.518 350.292 328.759 350.292 329C350.292 329.241 350.048 329.723 349.804 329.963C349.56 330.204 349.56 330.686 349.56 330.927C349.56 331.168 349.316 331.409 349.316 331.65L347.852 331.891L346.632 328.759L346.388 333.578L344.436 333.819L345.168 326.108C345.168 326.108 345.412 326.108 345.656 325.867C345.656 326.349 345.656 326.349 345.9 326.349Z" fill="white"/>
<path d="M360.235 332.415L358.283 332.656V327.837L355.354 332.897L353.402 333.138L353.646 325.186C353.646 325.186 353.646 325.186 353.89 325.186C354.134 325.186 354.134 325.186 354.378 325.186C354.866 325.186 355.11 325.186 355.354 325.427C355.598 325.668 355.598 325.909 355.598 326.391V330.006L358.039 325.909C358.283 325.427 358.527 325.186 358.771 324.945C359.015 324.704 359.259 324.704 359.503 324.463C359.747 324.463 360.235 324.463 360.479 324.463L360.235 332.415Z" fill="white"/>
<path d="M368.088 331.398L366.136 331.639V328.747H365.404C365.16 328.747 364.916 328.747 364.672 328.988C364.428 329.229 364.428 329.229 364.184 329.47C364.184 329.711 363.94 329.952 363.94 330.193L363.452 331.157C363.208 331.639 362.719 332.121 361.987 332.121C361.499 332.121 361.255 332.121 361.011 331.88L361.987 329.711C362.231 328.988 362.475 328.747 362.964 328.506C361.987 328.265 361.743 327.542 361.743 326.337C361.743 325.614 361.987 324.891 362.475 324.409C362.964 323.927 363.696 323.446 364.672 323.446L368.088 322.964V331.398ZM366.136 325.373L364.916 325.614C364.672 325.614 364.184 325.855 364.184 326.096C363.94 326.337 363.94 326.578 363.94 326.819C363.94 327.06 363.94 327.301 364.184 327.542C364.428 327.783 364.672 327.783 365.16 327.783L366.136 327.542V325.373Z" fill="white"/>
<path d="M222.408 362.022C222.896 362.022 223.14 361.781 223.384 361.781C223.628 361.54 223.628 361.299 223.628 361.058C223.628 360.817 223.628 360.576 223.384 360.576C223.384 360.576 223.14 360.335 222.896 360.335L221.675 360.576V359.13L222.896 358.889C223.14 358.889 223.14 358.889 223.384 358.648C223.384 358.407 223.628 358.407 223.628 358.166C223.628 357.925 223.628 357.684 223.384 357.684C223.14 357.684 222.896 357.443 222.652 357.684C222.164 357.684 221.675 357.925 221.187 358.407C220.943 357.925 220.943 357.684 220.943 357.443C220.943 357.202 220.943 356.961 221.187 356.961C221.431 356.72 221.675 356.72 221.92 356.479C222.164 356.479 222.408 356.238 222.896 356.238C223.628 356.238 224.116 356.238 224.604 356.479C225.092 356.72 225.092 357.202 225.092 357.925C225.092 358.648 224.848 359.13 224.36 359.371C224.848 359.612 225.092 360.094 225.092 360.817C225.092 361.54 224.848 362.022 224.36 362.504C223.872 362.986 223.384 363.227 222.652 363.227C222.164 363.227 221.675 363.227 221.431 362.986C221.187 362.745 220.943 362.745 220.943 362.263V362.022C220.943 361.781 221.187 361.781 221.187 361.299C221.431 361.54 221.675 361.54 221.92 361.781C222.164 362.022 222.408 362.022 222.408 362.022Z" fill="white"/>
<path d="M230.246 360.808C230.246 361.531 230.246 362.013 230.49 362.495C230.246 362.736 230.002 362.736 229.758 362.736C229.514 362.736 229.27 362.736 229.27 362.495C229.026 362.495 229.026 362.254 229.026 362.013C228.782 362.254 228.538 362.495 228.294 362.736C228.05 362.977 227.806 362.977 227.318 362.977C226.83 362.977 226.341 362.977 226.097 362.495C225.853 362.254 225.609 361.772 225.609 361.049C225.609 360.326 225.853 359.844 226.341 359.362C226.83 358.88 227.562 358.639 228.294 358.398C228.294 358.398 228.538 358.398 228.782 358.398V358.157C228.782 357.916 228.782 357.675 228.538 357.434C228.294 357.193 228.05 357.193 227.806 357.193C227.562 357.193 227.318 357.193 227.074 357.434C226.83 357.434 226.586 357.675 226.097 358.157C226.097 357.916 225.853 357.916 225.853 357.675C225.853 357.434 225.853 357.434 225.853 357.193C225.853 356.952 225.853 356.952 226.097 356.711C226.341 356.47 226.586 356.47 226.83 356.229C227.074 355.988 227.562 355.988 227.806 355.988C228.538 355.988 229.026 355.988 229.514 356.47C229.758 356.711 230.002 357.434 230.002 358.398L230.246 360.808ZM228.782 359.362C228.538 359.362 228.538 359.362 228.538 359.362C228.05 359.362 227.562 359.603 227.318 359.844C227.074 360.085 226.83 360.326 226.83 360.808C226.83 361.049 226.83 361.29 227.074 361.531C227.318 361.772 227.318 361.772 227.562 361.772C227.806 361.772 228.05 361.531 228.294 361.531C228.538 361.29 228.538 361.29 228.538 361.049L228.782 359.362Z" fill="white"/>
<path d="M238.531 354.758L238.287 361.505L236.823 361.746L237.067 356.445L235.846 356.686L235.602 358.614C235.358 359.819 235.114 360.542 234.87 361.264C234.626 361.987 234.138 362.228 233.65 362.228C233.406 362.228 233.162 362.228 233.162 361.987C232.918 361.746 232.918 361.505 232.918 361.264C232.918 361.023 232.918 361.023 232.918 361.023C233.162 361.023 233.406 361.023 233.406 360.783C233.65 360.783 233.65 360.542 233.894 360.301C233.894 360.06 234.138 359.819 234.138 359.337C234.138 358.855 234.382 358.132 234.382 357.168L234.626 355.24L238.531 354.758Z" fill="white"/>
<path d="M242.184 362.312C241.696 363.758 240.964 364.481 239.988 364.481C239.5 364.481 239.256 364.481 239.256 364.24C239.012 364.24 239.012 363.999 239.012 363.758C239.012 363.517 239.012 363.276 239.256 362.794L239.5 363.035C239.744 363.035 239.744 363.035 239.988 363.035C240.232 363.035 240.476 362.794 240.476 362.794C240.72 362.553 240.72 362.312 240.964 361.83L241.208 361.108H240.476L239.012 354.601C239.256 354.36 239.5 354.36 239.744 354.36C239.988 354.36 240.232 354.36 240.232 354.601C240.476 354.842 240.476 354.842 240.476 355.083L241.452 359.421L242.428 355.324C242.672 354.842 242.672 354.36 242.916 354.119C243.16 353.878 243.404 353.878 243.648 353.637C243.892 353.637 244.137 353.637 244.381 353.637L242.184 362.312Z" fill="white"/>
<path d="M249.502 360.391L248.038 360.632V357.74C247.794 357.981 247.55 358.222 247.306 358.463C247.061 358.704 246.817 358.704 246.329 358.704C245.841 358.704 245.597 358.704 245.353 358.463C245.109 358.222 244.865 357.981 244.865 357.74C244.865 357.258 244.621 356.776 244.621 356.053V354.126C244.621 354.126 244.621 354.126 244.865 354.126H245.109C245.353 354.126 245.597 354.126 245.841 354.367C246.085 354.607 246.085 354.848 246.085 355.089V356.053C246.085 356.535 246.085 356.776 246.085 357.017C246.085 357.258 246.329 357.258 246.329 357.499C246.329 357.499 246.573 357.499 246.817 357.499C247.061 357.499 247.306 357.258 247.55 357.258C247.794 357.017 247.794 356.776 247.794 356.776V354.126C247.794 354.126 247.794 354.126 248.038 354.126H248.282C248.526 354.126 248.77 354.126 249.014 354.367C249.258 354.607 249.258 354.848 249.258 355.089L249.502 360.391Z" fill="white"/>
<path d="M250.67 360.311L250.914 353.323C250.914 353.323 250.914 353.323 251.158 353.323H251.402C251.646 353.323 252.134 353.323 252.134 353.564C252.378 353.804 252.378 354.045 252.378 354.286V358.624L254.086 358.383L254.33 353.082C254.33 353.082 254.33 353.082 254.575 353.082H254.819C255.063 353.082 255.551 353.082 255.551 353.323C255.795 353.564 255.795 353.804 255.795 354.045V358.383L257.503 358.142L257.747 352.841C257.747 352.841 257.747 352.841 257.991 352.841H258.235C258.479 352.841 258.967 352.841 258.967 353.082C259.211 353.323 259.211 353.564 259.211 353.804L258.967 359.588L250.67 360.311Z" fill="white"/>
<path d="M265.109 358.95L263.645 359.191V354.854L261.204 359.191L259.74 359.432L259.984 352.444C259.984 352.444 259.984 352.444 260.228 352.444C260.472 352.444 260.472 352.444 260.472 352.444C260.716 352.444 260.96 352.444 261.204 352.685C261.448 352.926 261.449 353.167 261.449 353.408V356.54L263.401 352.926C263.645 352.685 263.645 352.444 263.889 352.203C264.133 351.962 264.377 351.962 264.621 351.962C264.865 351.962 265.109 351.962 265.353 351.962L265.109 358.95Z" fill="white"/>
<path d="M271.941 358.143L270.477 358.384V354.047L268.036 358.625L266.572 358.865L266.816 351.878C266.816 351.878 266.816 351.878 267.06 351.878C267.304 351.878 267.304 351.878 267.304 351.878C267.548 351.878 267.792 351.878 268.036 352.119C268.281 352.36 268.281 352.601 268.281 353.083V356.456L270.233 352.842C270.477 352.601 270.477 352.36 270.721 352.119C270.965 351.878 271.209 351.878 271.453 351.878C271.697 351.878 271.941 351.878 272.185 351.878L271.941 358.143ZM271.453 348.023C271.453 348.746 271.209 349.228 270.721 349.709C270.233 350.191 269.989 350.432 269.257 350.432C268.769 350.432 268.281 350.432 267.792 349.95C267.548 349.709 267.304 349.228 267.304 348.505C267.304 348.505 267.548 348.505 267.548 348.264C267.792 348.264 267.792 348.264 267.792 348.264H268.036L268.281 348.505C268.281 348.746 268.525 348.987 268.525 348.987C268.769 348.987 268.769 349.228 269.013 348.987C269.257 348.987 269.501 348.987 269.501 348.746C269.745 348.505 269.745 348.505 269.989 348.023C269.989 347.782 270.233 347.782 270.233 347.782C270.233 347.782 270.233 347.782 270.477 347.541C270.477 347.541 270.477 347.541 270.721 347.541H270.965C271.209 348.023 271.453 348.023 271.453 348.023Z" fill="white"/>
<path d="M280.689 349.994L280.445 357.223L278.737 357.464L278.981 351.921L277.028 352.162L276.784 357.705L275.076 357.946L275.32 350.716L280.689 349.994Z" fill="white"/>
<path d="M283.681 350.442C283.925 350.201 284.169 349.96 284.413 349.719C284.657 349.478 285.145 349.478 285.389 349.478C286.121 349.478 286.609 349.719 287.097 350.201C287.585 350.683 287.585 351.646 287.585 352.851C287.585 353.815 287.341 354.538 287.341 355.02C287.097 355.743 286.853 356.224 286.365 356.465C285.877 356.706 285.633 356.947 284.901 356.947C284.657 356.947 284.413 356.947 284.169 356.947C283.925 356.947 283.681 356.706 283.681 356.706C283.437 356.706 283.437 356.465 283.437 356.465V360.321L281.729 360.562L281.973 350.201H282.217C282.461 350.201 282.461 350.201 282.705 350.201C283.437 349.719 283.681 349.96 283.681 350.442ZM286.121 352.851C286.121 352.128 286.121 351.646 285.877 351.165C285.633 350.924 285.389 350.683 284.901 350.683C284.657 350.683 284.413 350.924 284.169 350.924C283.925 351.165 283.925 351.165 283.925 351.406V354.779C283.925 354.779 284.169 355.02 284.413 355.02C284.657 355.02 284.657 355.02 284.901 355.02C285.633 355.261 285.877 354.538 286.121 352.851Z" fill="white"/>
<path d="M294.587 352.179C294.587 353.384 294.343 354.348 293.611 355.07C293.123 355.793 292.391 356.275 291.415 356.275C290.439 356.275 289.707 356.034 289.218 355.552C288.73 354.829 288.486 354.107 288.486 352.902C288.486 352.179 288.73 351.456 288.974 350.733C289.218 350.01 289.707 349.528 290.195 349.287C290.683 349.046 291.171 348.805 291.903 348.564C292.879 348.564 293.611 348.805 294.099 349.287C294.343 350.01 294.587 350.974 294.587 352.179ZM292.879 352.42C292.879 350.974 292.635 350.251 291.659 350.251C291.171 350.251 290.927 350.492 290.683 350.974C290.439 351.456 290.439 351.938 290.195 352.661C290.195 353.384 290.195 353.866 290.439 354.347C290.683 354.829 290.927 354.829 291.415 354.829C292.391 354.588 292.879 353.866 292.879 352.42Z" fill="white"/>
<path d="M299.032 354.047C299.276 354.047 299.52 354.047 299.764 353.806C300.008 353.806 300.252 353.565 300.252 353.324C300.496 353.083 300.496 353.083 300.74 352.842C300.984 353.083 300.984 353.324 300.984 353.324C300.984 353.565 301.228 353.806 301.228 353.806C301.228 354.047 301.228 354.288 300.984 354.529C300.74 354.77 300.496 355.011 300.008 355.011C299.764 355.252 299.276 355.252 298.788 355.252C297.812 355.252 296.835 355.011 296.347 354.529C295.859 353.806 295.615 352.842 295.615 351.637C295.615 350.915 295.859 350.192 296.103 349.71C296.347 349.228 296.835 348.746 297.323 348.264C297.812 348.023 298.3 347.782 298.788 347.541C299.764 347.541 300.252 347.541 300.74 348.264C301.228 348.746 301.472 349.469 301.472 350.674C301.472 351.156 301.472 351.397 301.472 351.637L297.568 352.119C297.568 352.842 297.812 353.324 298.056 353.565C298.056 353.806 298.544 354.047 299.032 354.047ZM299.52 350.674C299.52 350.192 299.52 349.71 299.276 349.469C299.032 349.228 298.788 348.987 298.544 349.228C298.056 349.228 297.812 349.469 297.568 349.71C297.323 349.951 297.323 350.433 297.323 350.915L299.52 350.674Z" fill="white"/>
<path d="M302.473 347.575C302.717 347.575 302.961 347.575 302.961 347.334C303.449 347.334 303.693 347.334 303.937 347.575C304.181 347.816 304.181 348.057 304.181 348.539L303.937 354.805L302.229 355.046L302.473 347.575ZM305.889 348.057C306.133 347.816 306.133 347.575 306.377 347.334C306.621 347.093 306.621 347.093 306.865 346.852C307.109 346.852 307.109 346.611 307.353 346.611C307.597 346.611 307.841 346.611 308.085 346.852C308.329 347.093 308.329 347.334 308.329 347.816C308.085 347.816 307.597 348.057 307.353 348.539L306.621 349.503C306.377 349.744 306.377 349.985 306.133 349.985C305.889 350.226 305.889 350.226 305.645 350.226C306.133 350.226 306.377 350.708 306.865 351.19L308.329 353.841C308.085 354.082 307.597 354.323 307.353 354.323C307.109 354.323 306.865 354.323 306.621 354.323C306.377 354.323 306.377 354.082 306.133 353.841L305.645 352.877C305.645 352.877 305.401 352.636 305.401 352.395C305.401 352.154 305.157 352.154 305.157 351.913C305.157 351.672 304.913 351.672 304.669 351.431C304.425 351.19 304.425 351.19 304.181 351.19V349.744C304.425 349.744 304.425 349.503 304.669 349.503C304.669 349.262 304.913 349.262 304.913 349.021C305.157 348.78 305.157 348.539 305.401 348.298L305.889 348.057Z" fill="white"/>
<path d="M308.771 348.509C308.771 348.268 308.771 348.028 308.771 347.787C308.771 347.546 308.771 347.305 309.016 347.064C309.26 346.823 309.504 346.823 309.748 346.582L315.116 346.1C315.116 346.341 315.116 346.582 315.116 346.823C315.116 347.064 315.116 347.305 314.872 347.546C314.628 347.787 314.384 347.787 314.14 348.028L312.92 348.268L312.676 354.052L310.724 354.293L310.968 348.509H308.771Z" fill="white"/>
<path d="M321.719 345.389C322.451 345.389 323.183 345.389 323.427 345.63C323.915 345.871 324.159 346.353 323.915 347.076C323.915 347.317 323.915 347.799 323.671 348.04C323.427 348.281 323.427 348.522 322.939 348.763C323.671 349.004 323.915 349.485 323.915 350.449C323.915 351.172 323.671 351.654 323.183 352.136C322.695 352.618 322.207 352.859 321.231 352.859L317.814 353.1L318.058 345.63L321.719 345.389ZM320.011 348.522L321.231 348.281C321.719 348.281 322.207 347.799 322.207 347.317C322.207 347.076 322.207 346.835 321.963 346.835C321.719 346.835 321.719 346.594 321.475 346.594L320.011 346.835V348.522ZM320.011 349.967V351.654L321.475 351.413C321.719 351.413 321.963 351.172 322.207 351.172C322.451 350.931 322.451 350.69 322.451 350.449C322.451 349.967 322.207 349.726 321.719 349.726L320.011 349.967Z" fill="white"/>
<path d="M334.196 347.772C334.196 348.977 333.952 350.182 333.22 350.905C332.732 351.628 331.756 352.11 330.78 352.351C329.804 352.351 328.828 352.11 328.34 351.628C327.851 350.905 327.607 349.941 327.607 348.736C327.607 348.013 327.851 347.29 328.095 346.567C328.34 345.844 328.828 345.362 329.316 345.121C329.804 344.639 330.536 344.399 331.024 344.399C332 344.158 332.976 344.639 333.464 345.121C333.952 345.603 334.196 346.567 334.196 347.772ZM332.244 348.013C332.244 346.326 331.756 345.603 331.024 345.844C330.536 345.844 330.292 346.085 330.048 346.567C329.804 347.049 329.56 347.531 329.56 348.254C329.56 348.977 329.56 349.7 329.804 349.941C330.048 350.423 330.292 350.423 330.78 350.423C331.756 350.423 332.244 349.7 332.244 348.013Z" fill="white"/>
<path d="M337.353 344.665C337.597 344.424 337.841 344.183 338.085 344.183C338.329 343.942 338.817 343.942 339.061 343.942C339.549 343.942 340.281 343.942 340.769 344.183C341.257 344.424 341.501 344.906 341.745 345.388C341.989 345.87 341.989 346.592 341.989 347.074C341.989 347.797 341.745 348.761 341.501 349.243C341.257 349.966 340.769 350.448 340.281 350.688C339.793 350.929 339.061 351.17 338.573 351.411C336.132 351.652 335.156 350.207 335.156 347.074C335.156 345.629 335.4 344.183 336.132 343.219C336.865 342.014 337.597 341.292 338.573 341.051L339.793 340.569C340.037 340.328 340.281 340.328 340.525 340.087C340.769 339.846 340.769 339.846 341.013 339.605C341.501 339.846 341.501 340.087 341.501 340.569C341.501 341.292 341.013 341.773 340.281 342.014L339.061 342.496C338.329 342.737 337.597 343.46 337.353 344.665ZM337.109 347.315C337.109 348.279 337.109 349.002 337.353 349.243C337.597 349.725 337.841 349.966 338.329 349.725C338.817 349.725 339.061 349.484 339.305 349.002C339.549 348.52 339.793 348.038 339.793 347.315C339.793 345.87 339.305 345.388 338.329 345.388C337.841 345.388 337.353 345.629 337.109 345.87C337.109 346.11 337.109 346.351 337.109 346.351C337.109 346.351 337.109 347.074 337.109 347.315Z" fill="white"/>
<path d="M350.102 342.28L349.858 350.232L347.905 350.473L348.149 344.449L346.441 344.69L346.197 346.859C345.953 348.064 345.709 349.268 345.221 349.991C344.733 350.714 344.245 351.196 343.513 351.196C343.269 351.196 342.781 351.196 342.781 350.955C342.537 350.714 342.537 350.473 342.537 350.232C342.537 349.991 342.537 349.991 342.537 349.991C342.781 349.991 343.025 349.75 343.269 349.75C343.513 349.509 343.757 349.509 343.757 349.027C344.001 348.786 344.001 348.305 344.245 347.823C344.245 347.341 344.489 346.377 344.733 345.413L344.977 343.244L350.102 342.28Z" fill="white"/>
<path d="M357.35 347.358C357.35 348.322 357.35 348.804 357.595 349.286C357.35 349.527 356.862 349.527 356.618 349.527C356.374 349.527 355.886 349.527 355.886 349.286C355.642 349.045 355.642 349.045 355.642 348.563C355.398 348.804 355.154 349.045 354.666 349.286C354.178 349.527 353.934 349.527 353.446 349.527C352.714 349.527 352.226 349.527 351.738 349.045C351.25 348.563 351.006 348.081 351.25 347.358C351.25 346.394 351.494 345.912 352.226 345.189C352.958 344.707 353.69 344.226 354.91 343.985C355.154 343.985 355.398 343.985 355.642 343.985V343.744C355.642 343.262 355.642 343.021 355.398 342.78C355.154 342.539 354.91 342.539 354.422 342.539C354.178 342.539 353.69 342.539 353.446 342.78C353.202 343.021 352.714 343.262 352.226 343.503C351.982 343.262 351.982 343.262 351.982 343.021C351.982 342.78 351.738 342.539 351.738 342.539C351.738 342.298 351.982 342.057 352.226 341.816C352.47 341.575 352.958 341.334 353.446 341.334C353.934 341.093 354.422 341.093 354.91 341.093C355.886 341.093 356.618 341.093 357.106 341.575C357.595 342.057 357.839 342.78 357.839 343.744L357.35 347.358ZM355.398 345.671C355.398 345.671 355.154 345.671 355.398 345.671C355.154 345.671 355.154 345.671 354.91 345.671C354.178 345.912 353.69 345.912 353.446 346.394C353.202 346.635 352.958 347.117 352.958 347.358C352.958 347.599 352.958 348.081 353.202 348.081C353.446 348.322 353.69 348.322 353.934 348.322C354.178 348.322 354.666 348.081 354.91 347.84C355.154 347.599 355.398 347.358 355.398 347.117V345.671Z" fill="white"/>
<path d="M362.709 347.358C362.953 347.358 363.441 347.117 363.685 347.117C363.929 346.876 364.173 346.635 364.417 346.394C364.417 346.635 364.661 346.635 364.661 346.876C364.661 347.117 364.905 347.358 364.905 347.599C364.905 347.84 364.905 348.081 364.661 348.322C364.173 348.804 363.441 349.045 362.465 349.286C361.733 349.286 361.001 349.286 360.512 349.045C360.024 348.804 359.536 348.322 359.292 347.84C359.048 347.117 358.804 346.394 358.804 345.671C358.804 344.707 359.048 343.985 359.292 343.262C359.536 342.539 360.024 342.057 360.757 341.816C361.245 341.334 361.977 341.093 362.709 341.093C363.197 341.093 363.441 341.093 363.929 341.093C364.173 341.093 364.661 341.334 364.905 341.334C365.149 341.334 365.149 341.575 365.393 341.575C365.393 341.575 365.393 341.816 365.393 342.057C365.393 342.298 365.393 342.298 365.149 342.539C365.149 342.78 364.905 343.021 364.661 343.262C364.417 343.021 364.173 342.78 363.929 342.78C363.685 342.539 363.197 342.539 362.953 342.539C362.221 342.539 361.977 342.78 361.489 343.262C361.245 343.744 361.001 344.226 361.001 345.189C361.001 346.153 361.001 346.635 361.489 347.117C361.489 347.358 361.977 347.358 362.709 347.358Z" fill="white"/>
<path d="M365.64 342.258C365.64 342.017 365.64 341.776 365.64 341.535C365.64 341.294 365.64 340.812 365.884 340.572C366.128 340.331 366.372 340.331 366.86 340.09L372.961 339.367C372.961 339.608 372.961 339.849 372.961 340.09C372.961 340.331 372.717 340.812 372.717 341.053C372.473 341.294 372.229 341.294 371.741 341.535L370.277 341.776L370.033 348.042L367.836 348.283L368.081 342.017L365.64 342.258Z" fill="white"/>
<path d="M380.789 346.827L378.593 347.068V342.248L375.42 347.55L373.224 347.791L373.468 339.597C373.468 339.597 373.468 339.597 373.712 339.597C373.956 339.597 373.956 339.597 374.2 339.597C374.688 339.597 374.932 339.597 375.176 339.838C375.42 340.079 375.42 340.32 375.42 340.802V344.658L378.105 340.32C378.349 339.838 378.593 339.597 378.837 339.357C379.081 339.116 379.325 339.116 379.813 338.875C380.301 338.875 380.545 338.875 380.789 338.875V346.827Z" fill="white"/>
<path d="M226.796 369.985C227.284 369.985 227.772 369.985 228.26 370.226C228.504 370.467 228.748 370.948 228.748 371.43C228.748 371.671 228.748 371.912 228.504 372.153C228.504 372.394 228.26 372.635 228.016 372.635C228.504 372.876 228.748 373.358 228.748 374.081C228.748 374.804 228.504 375.286 228.26 375.527C228.016 376.009 227.528 376.009 226.796 376.25L224.111 376.491L224.355 369.744L226.796 369.985ZM225.576 372.635H226.552C227.04 372.635 227.284 372.394 227.284 371.912C227.284 371.671 227.284 371.671 227.04 371.43C227.04 371.43 226.796 371.189 226.552 371.189H225.332L225.576 372.635ZM225.576 373.84V375.286H226.796C227.04 375.286 227.04 375.286 227.284 375.045C227.284 374.804 227.528 374.804 227.528 374.563C227.528 374.081 227.284 373.84 226.796 373.84H225.576Z" fill="white"/>
<path d="M234.105 376.009L232.641 376.25V373.599L230.689 373.84V376.491L229.225 376.732L229.469 369.985C229.469 369.985 229.469 369.985 229.713 369.985H229.957C230.201 369.985 230.445 369.985 230.689 370.226C230.933 370.467 230.933 370.707 230.933 370.948V372.394L232.885 372.153V369.744C232.885 369.744 232.885 369.744 233.129 369.744H233.373C233.617 369.744 233.861 369.744 234.105 369.985C234.349 370.226 234.349 370.467 234.349 370.707L234.105 376.009Z" fill="white"/>
<path d="M238.01 376.718C237.766 378.164 237.034 378.887 235.814 378.887C235.326 378.887 235.082 378.887 235.082 378.646C234.838 378.646 234.838 378.405 234.838 378.164C234.838 377.923 234.838 377.682 235.082 377.2L235.326 377.441C235.57 377.441 235.57 377.441 235.814 377.441C236.058 377.441 236.302 377.441 236.302 377.2C236.546 376.959 236.546 376.718 236.79 376.477L237.034 375.754H236.302L234.838 369.248C235.082 369.007 235.326 369.007 235.57 369.007C235.814 369.007 236.058 369.007 236.058 369.248C236.302 369.489 236.302 369.489 236.302 369.73L237.278 374.068L238.254 370.212C238.498 369.73 238.498 369.248 238.742 369.007C238.987 368.766 239.231 368.766 239.475 368.525C239.719 368.525 239.963 368.525 240.207 368.525L238.01 376.718Z" fill="white"/>
<path d="M240.465 370.191C240.465 369.95 240.465 369.709 240.465 369.709C240.465 369.468 240.465 369.227 240.709 368.986C240.953 368.745 241.197 368.745 241.441 368.745L245.834 368.263C245.834 368.504 245.834 368.745 245.834 368.745C245.834 368.986 245.834 369.227 245.59 369.468C245.346 369.709 245.102 369.709 244.858 369.709H243.881L243.637 375.011L242.173 375.252L242.417 369.95L240.465 370.191Z" fill="white"/>
<path d="M247.847 368.575C248.091 368.334 248.335 368.093 248.579 367.852C248.823 367.611 249.067 367.611 249.555 367.611C250.288 367.611 250.776 367.852 251.02 368.334C251.264 368.816 251.508 369.78 251.508 370.985C251.508 371.708 251.264 372.431 251.264 373.154C251.02 373.636 250.776 374.117 250.532 374.599C250.288 374.84 249.799 375.081 249.311 375.081C249.067 375.081 248.823 375.081 248.823 375.081C248.579 375.081 248.579 374.84 248.335 374.84C248.091 374.84 248.091 374.599 248.091 374.599V378.214H246.627L246.871 368.334H247.115C247.115 368.334 247.359 368.334 247.603 368.334C247.359 368.093 247.847 368.093 247.847 368.575ZM249.799 371.226C249.799 370.503 249.799 370.021 249.555 369.78C249.311 369.539 249.067 369.298 248.823 369.298C248.579 369.298 248.335 369.298 248.091 369.539C247.847 369.78 247.847 369.78 247.847 370.021V373.154C247.847 373.154 248.091 373.395 248.335 373.395C248.579 373.395 248.579 373.395 248.823 373.395C249.311 373.395 249.799 372.672 249.799 371.226Z" fill="white"/>
<path d="M255.128 372.895C255.372 372.895 255.616 372.895 255.86 372.654C256.104 372.654 256.104 372.413 256.348 372.413C256.592 372.172 256.592 372.172 256.592 371.931C256.592 372.172 256.836 372.413 256.836 372.413C256.836 372.654 257.08 372.895 257.08 372.895C257.08 373.136 257.08 373.377 256.836 373.377C256.592 373.618 256.348 373.618 256.104 373.859C255.86 374.1 255.372 374.1 255.128 374.1C254.152 374.1 253.419 373.859 252.931 373.377C252.443 372.654 252.199 371.931 252.199 370.726C252.199 370.003 252.443 369.28 252.687 368.798C252.931 368.316 253.175 367.834 253.663 367.593C254.152 367.352 254.64 367.111 255.128 367.111C255.86 367.111 256.592 367.352 256.836 367.834C257.324 368.316 257.324 369.039 257.324 370.003C257.324 370.485 257.324 370.726 257.324 370.967L253.907 371.208C253.907 371.931 254.152 372.172 254.396 372.654C254.396 372.895 254.64 373.136 255.128 372.895ZM255.86 370.003C255.86 369.521 255.86 369.039 255.616 368.798C255.372 368.557 255.128 368.557 254.884 368.557C254.64 368.557 254.396 368.798 254.152 369.039C253.907 369.28 253.907 369.762 253.907 370.244L255.86 370.003Z" fill="white"/>
<path d="M263.142 373.566L261.434 373.807V370.915L259.482 371.156V374.048L257.773 374.289L258.017 367.3C258.017 367.3 258.017 367.3 258.262 367.3H258.506C258.75 367.3 259.238 367.3 259.238 367.541C259.482 367.782 259.482 368.023 259.482 368.264V369.71L261.434 369.469V366.818C261.434 366.818 261.434 366.818 261.678 366.818C261.922 366.818 261.922 366.818 261.922 366.818C262.166 366.818 262.654 366.818 262.654 367.059C262.898 367.3 262.898 367.541 262.898 368.023L263.142 373.566Z" fill="white"/>
<path d="M269.748 372.88L268.039 373.12V370.229L266.087 370.47V373.361L264.379 373.602L264.623 366.614C264.623 366.614 264.623 366.614 264.867 366.614C265.111 366.614 265.111 366.614 265.111 366.614C265.599 366.614 265.843 366.614 265.843 366.855C266.087 367.096 266.087 367.337 266.087 367.819V369.265L268.039 369.024V366.373C268.039 366.373 268.039 366.373 268.284 366.373C268.528 366.373 268.528 366.373 268.528 366.373C269.016 366.373 269.26 366.373 269.26 366.614C269.504 366.855 269.504 367.096 269.504 367.578L269.748 372.88Z" fill="white"/>
<path d="M276.613 372.373L274.904 372.614V368.276L272.464 372.855L270.756 373.096L271 366.108C271 366.108 271 366.108 271.244 366.108C271.488 366.108 271.488 366.108 271.488 366.108C271.732 366.108 272.22 366.108 272.22 366.349C272.464 366.59 272.464 366.831 272.464 367.312V370.686L274.416 367.072C274.66 366.831 274.904 366.59 274.904 366.349C275.149 366.108 275.393 366.108 275.637 366.108C275.881 366.108 276.125 366.108 276.369 366.108L276.613 372.373Z" fill="white"/>
<path d="M280.259 367.354L280.991 365.908C281.235 365.426 281.479 365.185 281.479 365.185C281.723 364.944 281.967 364.944 282.211 364.944C282.455 364.944 282.699 364.944 283.187 365.185L281.235 368.799L282.943 372.173C282.699 372.414 282.455 372.414 282.211 372.414C281.967 372.414 281.723 372.414 281.479 372.414C281.235 372.414 281.235 372.173 280.991 371.932L280.259 370.486L279.282 372.655L277.574 372.896L279.526 369.281L277.818 366.149C278.306 365.908 278.55 365.908 278.794 365.908C279.038 365.908 279.282 365.908 279.526 366.149C279.771 366.149 279.771 366.39 280.015 366.631L280.259 367.354Z" fill="white"/>
<path d="M285.855 364.449C286.099 364.449 286.099 364.449 286.343 364.449C286.831 364.449 287.075 364.449 287.075 364.69C287.32 364.931 287.32 365.172 287.32 365.654L287.075 371.679L285.367 371.92L285.855 364.449ZM289.272 365.172C289.516 364.931 289.516 364.69 289.76 364.449C290.004 364.208 290.004 364.208 290.248 364.208C290.492 364.208 290.492 363.967 290.736 363.967C290.98 363.967 291.224 363.967 291.468 364.208C291.712 364.449 291.712 364.69 291.712 365.172C291.468 365.172 291.224 365.413 290.98 365.895L290.492 366.859C290.248 367.1 290.248 367.341 290.004 367.341C289.76 367.582 289.76 367.582 289.516 367.582C290.004 367.582 290.248 368.064 290.492 368.546L291.956 370.956C291.712 371.197 291.224 371.438 290.98 371.438C290.736 371.438 290.492 371.438 290.248 371.438C290.004 371.438 290.004 371.197 289.76 370.956L289.272 370.233C289.272 370.233 289.028 369.992 289.028 369.751C289.028 369.51 288.784 369.51 288.784 369.269C288.784 369.028 288.54 369.028 288.54 368.787C288.296 368.546 288.296 368.546 288.052 368.546V367.1C288.296 367.1 288.296 366.859 288.54 366.859C288.54 366.618 288.784 366.618 288.784 366.377C288.784 366.136 289.028 365.895 289.272 365.654V365.172Z" fill="white"/>
<path d="M297.826 367.086C297.826 368.291 297.582 369.255 296.849 369.978C296.361 370.701 295.629 371.183 294.653 371.183C293.677 371.183 292.945 370.942 292.457 370.46C291.969 369.737 291.725 369.014 291.725 367.809C291.725 367.086 291.969 366.363 292.213 365.64C292.457 364.917 292.945 364.435 293.433 364.194C293.921 363.953 294.409 363.712 295.141 363.471C296.117 363.471 296.849 363.712 297.337 364.194C297.582 364.917 297.826 365.881 297.826 367.086ZM296.117 367.086C296.117 365.64 295.629 364.917 294.897 364.917C294.409 364.917 294.165 365.158 293.921 365.64C293.677 366.122 293.677 366.604 293.433 367.327C293.433 368.05 293.433 368.532 293.677 369.014C293.921 369.496 294.165 369.496 294.653 369.496C295.629 369.496 296.117 368.773 296.117 367.086Z" fill="white"/>
<path d="M300.027 363.005C300.271 363.005 300.515 363.005 300.515 363.246C300.759 363.246 300.759 363.487 300.759 363.728L301.979 367.102L303.443 363.487C303.443 363.246 303.687 363.005 303.931 363.005C304.175 362.764 304.419 362.764 304.663 362.764C304.907 362.764 304.907 362.764 305.152 362.764C305.396 362.764 305.396 362.764 305.64 362.764L305.884 369.994L304.175 370.235V365.656C304.175 365.897 303.931 366.138 303.931 366.379C303.931 366.62 303.687 366.861 303.687 367.343C303.687 367.584 303.443 368.066 303.443 368.307C303.443 368.548 303.199 368.789 303.199 369.03H301.979L301.003 366.138L300.759 370.717H298.562L299.295 363.487C299.295 363.487 299.539 363.487 299.783 363.246C299.783 363.005 300.027 363.005 300.027 363.005Z" fill="white"/>
<path d="M307.82 362.318C308.064 362.318 308.308 362.318 308.552 362.559C308.796 362.559 308.796 362.8 308.796 363.041L310.016 366.415L311.481 362.8C311.481 362.559 311.725 362.318 311.969 362.318C312.213 362.077 312.457 362.077 312.701 362.077C312.945 362.077 312.945 362.077 313.189 362.077C313.433 362.077 313.433 362.077 313.677 362.077L313.921 369.547L312.213 369.788V364.969C312.213 365.21 311.969 365.451 311.969 365.692C311.969 365.933 311.725 366.174 311.725 366.656C311.725 366.897 311.481 367.379 311.481 367.62C311.481 367.86 311.237 368.101 311.237 368.342H310.016L309.04 365.451L308.796 370.029L307.088 370.27L307.82 362.8C307.82 362.8 308.064 362.8 308.308 362.559C307.576 362.318 307.82 362.318 307.82 362.318Z" fill="white"/>
<path d="M318.297 370.163C317.809 371.609 316.833 372.572 315.613 372.572C315.125 372.572 314.881 372.572 314.637 372.332C314.393 372.091 314.393 372.091 314.393 371.609C314.393 371.368 314.637 370.886 314.881 370.404C314.881 370.404 315.125 370.645 315.369 370.645C315.613 370.645 315.613 370.645 315.857 370.645C316.101 370.645 316.345 370.404 316.589 370.404C316.833 370.163 316.833 369.922 317.077 369.44L317.321 368.717H316.345L314.393 361.489C314.637 361.248 315.125 361.248 315.369 361.248C315.613 361.248 315.857 361.248 316.101 361.489C316.345 361.73 316.345 361.971 316.589 362.212L317.809 367.031L319.029 362.694C319.273 362.212 319.273 361.73 319.517 361.489C319.761 361.248 320.005 361.007 320.249 361.007C320.494 361.007 320.738 361.007 321.226 361.248L318.297 370.163Z" fill="white"/>
<path d="M327.331 368.259H325.379V365.126L322.939 365.367V368.5L320.986 368.74L321.23 361.029C321.23 361.029 321.23 361.029 321.474 361.029C321.718 361.029 321.718 361.029 321.962 361.029C322.451 361.029 322.695 361.029 322.939 361.27C323.183 361.511 323.183 361.752 323.183 362.234V363.921L325.623 363.68V360.788C325.623 360.788 325.623 360.788 325.867 360.788C326.111 360.788 326.111 360.788 326.355 360.788C326.843 360.788 327.087 360.788 327.331 361.029C327.575 361.27 327.575 361.511 327.575 361.993L327.331 368.259Z" fill="white"/>
<path d="M335.159 367.584L333.207 367.825V363.246L330.523 368.066L328.57 368.307L328.814 360.596C328.814 360.596 328.814 360.596 329.058 360.596C329.302 360.596 329.302 360.596 329.546 360.596C330.035 360.596 330.279 360.596 330.523 360.837C330.767 361.078 330.767 361.319 330.767 361.801V365.415L333.207 361.319C333.451 360.837 333.695 360.596 333.939 360.596C334.183 360.355 334.427 360.355 334.671 360.355C334.915 360.355 335.403 360.355 335.647 360.355L335.159 367.584Z" fill="white"/>
<path d="M336.859 359.64C337.103 359.64 337.347 359.64 337.591 359.4C338.079 359.4 338.324 359.399 338.568 359.64C338.812 359.881 338.812 360.122 338.812 360.604L338.568 367.111L336.615 367.352L336.859 359.64ZM341.008 360.363C341.252 360.122 341.252 359.881 341.496 359.64C341.74 359.399 341.74 359.399 341.984 359.159C342.228 359.159 342.228 358.918 342.472 358.918C342.96 358.918 343.204 358.918 343.204 359.159C343.448 359.399 343.448 359.64 343.448 360.122C343.204 360.122 342.716 360.363 342.472 360.845L341.74 361.809C341.496 362.05 341.496 362.291 341.252 362.532C341.008 362.773 341.008 362.773 340.764 362.773C341.252 362.773 341.74 363.255 341.984 363.737L343.448 366.388C343.204 366.629 342.716 366.87 342.228 366.87C341.984 366.87 341.74 366.87 341.496 366.87C341.252 366.87 341.008 366.629 341.008 366.388L340.52 365.424C340.52 365.424 340.276 365.183 340.276 364.942C340.276 364.701 340.032 364.701 340.032 364.46C339.788 364.219 339.788 364.219 339.544 363.978C339.3 363.737 339.3 363.737 339.056 363.737V362.291C339.3 362.291 339.3 362.05 339.544 362.05C339.788 361.809 339.788 361.809 340.032 361.568C340.276 361.327 340.276 361.086 340.52 360.845L341.008 360.363Z" fill="white"/>
<path d="M350.296 364.435C350.296 365.399 350.296 365.881 350.54 366.363C350.296 366.604 349.808 366.604 349.564 366.604C349.32 366.604 349.076 366.604 348.832 366.363C348.588 366.122 348.588 366.122 348.588 365.64C348.344 365.881 348.1 366.122 347.612 366.363C347.124 366.604 346.88 366.604 346.392 366.604C345.66 366.604 345.171 366.604 344.683 366.122C344.195 365.64 344.195 365.158 344.195 364.435C344.195 363.472 344.439 362.99 345.171 362.508C345.904 362.026 346.636 361.544 347.856 361.544C348.1 361.544 348.344 361.544 348.588 361.544V361.303C348.588 360.821 348.588 360.58 348.344 360.339C348.1 360.098 347.856 360.098 347.368 360.098C347.124 360.098 346.636 360.098 346.392 360.339C346.148 360.58 345.66 360.58 345.171 361.062C344.927 360.821 344.927 360.821 344.927 360.58C344.927 360.339 344.683 360.098 344.927 360.098C344.927 359.857 345.171 359.616 345.416 359.375C345.66 359.134 346.148 358.893 346.636 358.893C347.124 358.652 347.612 358.652 348.1 358.652C349.076 358.652 349.808 358.652 350.296 359.134C350.784 359.616 351.028 360.339 351.028 361.303L350.296 364.435ZM348.344 362.749C348.344 362.749 348.1 362.749 348.344 362.749C348.1 362.749 348.1 362.749 347.856 362.749C347.124 362.749 346.636 362.99 346.392 363.231C346.148 363.472 345.904 363.953 345.904 364.194C345.904 364.435 345.904 364.917 346.148 364.917C346.392 365.158 346.636 365.158 346.88 365.158C347.124 365.158 347.612 364.917 347.856 364.676C348.1 364.435 348.344 364.194 348.344 363.953V362.749Z" fill="white"/>
<path d="M358.104 363.95H358.836V368.046L356.884 368.287V365.878L351.515 366.36L351.759 358.407C351.759 358.407 351.759 358.407 352.003 358.407C352.247 358.407 352.247 358.407 352.491 358.407C352.979 358.407 353.223 358.407 353.467 358.648C353.711 358.889 353.711 359.13 353.711 359.612V364.432L356.152 364.191L356.396 357.926C356.396 357.926 356.396 357.926 356.64 357.926C356.884 357.926 356.884 357.926 357.128 357.926C357.616 357.926 357.86 357.926 358.104 358.167C358.348 358.408 358.348 358.648 358.348 359.13L358.104 363.95Z" fill="white"/>
<path d="M366.917 364.883L364.965 365.124V360.304L362.036 365.365L360.084 365.606L360.328 357.654C360.328 357.654 360.328 357.654 360.572 357.654C360.816 357.654 360.816 357.654 361.06 357.654C361.548 357.654 361.792 357.654 362.036 357.895C362.28 358.136 362.28 358.377 362.28 358.859V362.473L364.721 358.377C364.965 357.895 365.209 357.654 365.453 357.413C365.697 357.172 365.941 357.172 366.429 357.172C366.673 357.172 367.161 357.172 367.405 357.172L366.917 364.883Z" fill="white"/>
<path d="M375.651 364.207L373.699 364.448V359.629L370.526 364.689L368.574 364.93L368.818 356.978C368.818 356.978 368.818 356.978 369.062 356.978C369.306 356.978 369.306 356.978 369.55 356.978C370.038 356.978 370.282 356.978 370.526 357.219C370.77 357.46 370.77 357.701 370.77 358.183V361.797L373.454 357.701C373.699 357.219 373.943 356.978 374.187 356.738C374.431 356.497 374.675 356.497 375.163 356.497C375.651 356.497 375.895 356.497 376.139 356.497L375.651 364.207ZM374.919 352.641C374.675 353.364 374.431 354.087 373.943 354.569C373.454 355.051 372.722 355.292 371.99 355.292C371.258 355.292 370.526 355.292 370.038 354.81C369.55 354.328 369.306 353.846 369.306 353.123C369.306 353.123 369.55 352.882 369.794 352.882C370.038 352.882 370.038 352.882 370.282 352.882C370.526 352.882 370.526 352.882 370.526 352.882C370.526 352.882 370.77 353.123 370.77 353.364C370.77 353.605 371.014 353.846 371.258 354.087C371.502 354.328 371.746 354.328 371.99 354.328C372.234 354.328 372.478 354.328 372.722 354.087C372.966 353.846 373.21 353.605 373.21 353.364C373.21 353.123 373.454 353.123 373.454 353.123L373.699 352.882H373.943C373.943 352.882 374.187 352.882 374.431 352.882C374.919 352.641 374.919 352.641 374.919 352.641Z" fill="white"/>
<path d="M270.47 528.758V523.216C271.935 522.011 273.399 520.566 275.351 518.397C277.06 516.47 278.768 514.542 280.232 512.615C282.916 509.241 284.381 505.868 284.381 502.977C284.381 501.29 283.893 499.844 283.16 498.881C282.428 497.917 281.208 497.435 279.744 497.194C278.524 497.194 277.059 497.435 275.839 497.917C274.619 498.64 273.399 499.603 272.179 501.049C270.715 498.881 269.982 497.435 269.982 496.471C269.982 495.748 270.226 495.025 270.959 494.303C273.643 491.893 276.815 490.688 280.476 490.688C283.893 490.929 286.333 491.893 288.285 494.062C290.238 496.23 291.214 499.121 291.214 502.736C291.214 507.555 289.017 512.615 284.625 517.915C282.672 520.084 281.208 522.011 279.5 523.457L288.773 524.18C289.994 524.18 291.214 524.662 291.946 525.626C292.678 526.349 292.922 527.553 293.166 528.758C293.166 529.24 293.166 529.481 293.166 529.963C293.166 530.204 293.166 530.686 293.166 530.927L270.47 528.758Z" fill="white"/>
<path d="M320.255 513.553C320.255 520.541 319.278 525.601 317.082 528.974C314.886 532.347 311.713 533.793 307.321 533.311C302.928 532.829 299.755 530.901 297.559 527.287C295.363 523.673 294.387 518.613 294.143 511.867C294.143 505.361 295.119 500.301 297.315 496.928C299.511 493.555 302.684 491.868 306.833 492.109C311.225 492.35 314.398 494.278 316.594 497.651C319.034 501.024 320.255 506.325 320.255 513.553ZM313.178 513.071C313.178 508.252 312.689 504.397 311.713 501.988C310.737 499.578 309.273 498.374 307.321 498.133C305.368 498.133 303.904 499.096 302.928 501.265C301.952 503.434 301.708 507.048 301.708 511.867C301.708 516.686 302.196 520.3 303.172 522.468C304.148 524.878 305.612 526.083 307.565 526.323C309.517 526.564 310.981 525.36 311.957 523.191C312.689 521.505 313.178 517.89 313.178 513.071Z" fill="white"/>
<path d="M323.914 534.029V528.005C325.378 526.8 327.33 525.114 329.527 522.945C331.723 520.777 333.675 518.849 335.384 516.681C338.556 513.066 340.02 509.452 340.02 506.32C340.02 504.392 339.532 502.947 338.556 501.983C337.58 501.019 336.36 500.296 334.651 500.296C333.187 500.296 331.723 500.537 330.259 501.26C328.795 501.983 327.33 502.947 325.866 504.633C324.158 502.224 323.182 500.537 323.182 499.573C323.182 498.851 323.67 497.887 324.402 497.164C327.574 494.514 330.991 493.309 335.384 493.309C339.288 493.55 342.217 494.754 344.413 496.923C346.609 499.091 347.829 502.224 347.829 506.32C347.829 511.38 345.389 516.922 340.02 522.704C337.824 525.114 335.872 527.041 334.163 528.487L344.901 529.451C346.365 529.692 347.585 530.174 348.562 530.896C349.294 531.86 349.782 533.065 349.782 534.27C349.782 534.752 349.782 535.234 349.782 535.474C349.782 535.715 349.782 536.197 349.782 536.438L323.914 534.029Z" fill="white"/>
<path d="M379.435 500.472C380.555 504.097 374.805 505.109 374.805 505.109C373.868 503.487 371.734 501.11 368.249 501.047C363.576 501.036 359.845 505.076 359.867 513.163C363.633 504.528 381.105 506.158 381.112 524.838C381.114 532.148 375.842 538.692 367.506 538.541C354.867 538.313 352.654 526.017 352.824 516.708C352.951 509.757 353.65 500.439 360.757 496.177C367.377 492.205 376.617 493.998 379.435 500.472ZM367.498 514.276C359.634 514.134 359.192 532.468 367.504 532.482C375.817 532.496 375.363 514.418 367.498 514.276Z" fill="white"/>
<path d="M256.579 443.681C244.133 437.899 230.223 441.513 220.95 453.56C208.992 469.463 209.48 495.003 221.682 511.628C231.199 524.399 245.109 528.977 257.311 524.158C257.555 524.158 257.555 523.917 257.555 523.676L257.311 504.882C257.311 504.4 257.067 504.159 256.823 504.4C254.627 505.605 251.942 506.087 249.502 505.846C239.741 505.123 231.931 495.003 231.687 482.956C231.443 470.908 239.008 461.27 248.77 461.27C251.454 461.27 253.895 461.993 256.335 463.439C256.579 463.68 256.823 463.439 256.823 462.957L256.579 443.681Z" fill="white"/>
<path d="M250.968 424.436C255.849 417.931 255.605 408.052 250.724 402.269C245.843 396.727 238.034 397.209 233.397 403.715C228.761 409.979 229.005 419.617 233.642 425.159C238.522 431.183 246.087 430.942 250.968 424.436Z" fill="white"/>
<path d="M270.6 396.438C271.586 396.204 272.308 396.072 272.736 396.041C275.39 395.879 276.711 397.19 276.722 399.945C276.722 406.676 276.722 413.416 276.722 420.126C280.769 412.654 284.836 405.08 288.904 397.414C289.371 396.499 289.88 395.838 290.449 395.442C291.039 395.035 291.751 394.801 292.656 394.74C293.744 394.669 294.679 394.71 295.493 394.872C295.493 406.94 295.503 418.957 295.493 430.954C293.449 431.005 291.405 431.055 289.371 431.106C289.361 423.176 289.381 415.226 289.381 407.245C284.907 415.399 280.443 423.471 276.02 431.452C274.21 431.493 272.41 431.533 270.6 431.584C270.6 419.872 270.6 408.16 270.6 396.438Z" fill="white"/>
<path d="M307.899 408.841C311.813 408.628 315.759 408.414 319.694 408.201C319.694 403.178 319.694 398.146 319.704 393.113C320.64 392.859 321.423 392.717 322.043 392.666C323.314 392.585 324.321 392.869 325.033 393.551C325.755 394.232 326.11 395.289 326.11 396.753C326.11 407.875 326.1 418.988 326.11 430.11C323.975 430.161 321.819 430.222 319.694 430.283C319.684 424.925 319.684 419.567 319.684 414.199C315.769 414.392 311.824 414.575 307.899 414.768C307.909 420.045 307.909 425.332 307.888 430.608C305.763 430.669 303.618 430.73 301.482 430.791C301.482 418.693 301.472 406.574 301.482 394.405C302.479 394.13 303.221 394.008 303.729 393.967C306.505 393.774 307.909 395.106 307.899 397.963C307.909 401.592 307.899 405.222 307.899 408.841Z" fill="white"/>
<path d="M339.269 398.024C335.994 398.227 332.74 398.451 329.486 398.664C329.385 397.993 329.354 397.241 329.354 396.428C329.354 395.198 329.7 394.191 330.422 393.398C331.134 392.615 332.11 392.188 333.33 392.087C340.641 391.558 347.973 391.039 355.315 390.501C355.406 391.314 355.457 392.127 355.447 392.961C355.467 394.211 355.121 395.198 354.461 395.95C353.789 396.702 352.844 397.119 351.623 397.2C349.641 397.333 347.678 397.465 345.726 397.597C345.736 408.231 345.726 418.866 345.726 429.52C343.56 429.591 341.424 429.652 339.269 429.713C339.248 419.14 339.258 408.577 339.269 398.024Z" fill="white"/>
<path d="M375.459 422.343C376.709 422.302 377.665 422.627 378.326 423.329C378.997 424.051 379.343 425.067 379.333 426.44C379.343 426.887 379.333 427.233 379.313 427.538C379.302 427.833 379.282 428.168 379.252 428.524C372.479 428.717 365.737 428.931 358.986 429.124C358.975 416.121 358.975 403.158 358.975 390.226C365.483 389.738 371.981 389.26 378.489 388.793C378.591 389.382 378.641 390.104 378.621 390.958C378.621 392.463 378.326 393.53 377.726 394.211C377.126 394.882 376.099 395.259 374.655 395.36C371.584 395.564 368.513 395.757 365.443 395.97C365.443 399.173 365.443 402.375 365.432 405.598C368.747 405.405 372.042 405.222 375.367 405.029C375.367 407.133 375.367 409.248 375.367 411.363C372.042 411.535 368.747 411.698 365.432 411.871C365.443 415.47 365.432 419.089 365.432 422.709C368.768 422.576 372.113 422.465 375.448 422.332C375.448 422.332 375.448 422.332 375.459 422.343Z" fill="white"/>
<path d="M404.795 398.868C404.795 403.514 403.687 407.103 401.46 409.644C399.243 412.166 396.081 413.518 392.013 413.691C391.271 413.721 390.518 413.752 389.766 413.792C389.766 418.601 389.766 423.4 389.766 428.209C387.61 428.27 385.454 428.331 383.309 428.392C383.309 415.104 383.299 401.867 383.309 388.701C385.983 388.111 388.749 387.715 391.596 387.501C395.999 387.217 399.324 387.939 401.511 389.789C403.687 391.68 404.785 394.71 404.795 398.878C404.795 398.878 404.795 398.874 404.795 398.868ZM398.226 399.661C398.226 397.394 397.718 395.726 396.701 394.649C395.664 393.571 394.189 393.093 392.237 393.225C391.261 393.296 390.437 393.418 389.725 393.581C389.725 398.359 389.725 403.138 389.725 407.967C390.234 407.936 390.742 407.906 391.25 407.875C393.711 407.764 395.501 407.052 396.589 405.74C397.657 404.449 398.226 402.416 398.226 399.661Z" fill="white"/>
<path d="M276.986 476.206C274.851 476.165 272.725 476.114 270.6 476.063C270.6 464.311 270.6 452.599 270.6 440.907C271.586 440.714 272.329 440.612 272.837 440.612C275.613 440.561 276.996 441.913 276.986 444.679C276.986 455.15 276.986 465.653 276.986 476.206ZM288.619 452.243C288.192 452.924 287.795 453.595 287.358 454.256C286.961 454.906 286.453 455.496 285.883 456.025C285.324 456.574 284.653 457.001 283.85 457.336C284.846 457.641 285.7 458.15 286.433 458.871C287.165 459.624 288.1 461.006 289.158 463.009C291.486 467.35 293.795 471.702 296.113 476.094C294.883 476.907 293.713 477.283 292.605 477.253C291.486 477.212 290.52 476.958 289.758 476.49C289.005 476.002 288.344 475.28 287.836 474.294C286.799 472.342 285.751 470.39 284.734 468.469C284.084 467.198 283.443 466.029 282.863 464.961C282.253 463.884 281.643 462.969 281.003 462.257C280.331 461.515 279.559 461.006 278.664 460.712C278.643 458.841 278.654 456.97 278.664 455.11C279.386 454.896 280.026 454.469 280.626 453.839C281.165 453.209 281.745 452.375 282.345 451.318C282.924 450.281 283.677 449.03 284.541 447.556C285.182 446.478 285.812 445.421 286.453 444.353C287.297 442.961 288.141 441.964 288.965 441.314C289.798 440.693 290.693 440.368 291.669 440.368C292.91 440.348 293.825 440.622 294.405 441.181C294.974 441.741 295.269 442.656 295.269 443.916C295.279 444.425 295.259 444.791 295.218 445.035C294.395 445.035 293.652 445.268 293.012 445.665C292.381 446.082 291.791 446.763 291.293 447.688C290.398 449.193 289.483 450.708 288.619 452.222C288.619 452.222 288.619 452.233 288.619 452.243Z" fill="white"/>
<path d="M325.348 458.79C325.368 464.992 324.117 469.811 321.646 473.257C319.145 476.683 315.627 478.32 311.041 478.168C308 478.086 305.458 477.202 303.343 475.575C301.258 473.928 299.672 471.651 298.604 468.723C297.527 465.795 296.998 462.409 296.998 458.546C296.998 454.693 297.567 451.399 298.777 448.522C299.936 445.655 301.624 443.489 303.76 441.974C305.926 440.47 308.478 439.697 311.417 439.646C315.871 439.606 319.318 441.242 321.728 444.587C324.148 447.963 325.348 452.71 325.348 458.821C325.348 458.8 325.338 458.79 325.348 458.79ZM318.769 458.79C318.769 454.561 318.128 451.328 316.867 449.05C315.586 446.804 313.766 445.655 311.366 445.685C308.844 445.685 306.922 446.804 305.621 449.061C304.309 451.287 303.648 454.469 303.648 458.617C303.648 462.775 304.309 466.08 305.621 468.459C306.922 470.848 308.793 472.088 311.213 472.159C313.644 472.22 315.535 471.082 316.827 468.743C318.098 466.395 318.748 463.08 318.769 458.79Z" fill="white"/>
<path d="M334.866 439.86C335.74 439.85 336.472 440.094 337.093 440.571C337.682 441.049 338.191 441.863 338.608 442.991C340.957 449.772 343.346 456.584 345.726 463.436C348.105 456.686 350.485 449.915 352.895 443.113C353.728 440.785 355.03 439.616 356.769 439.585C358.203 439.565 359.28 439.728 360.013 440.073C360.755 452.995 361.497 465.907 362.25 478.788C360.226 478.727 358.203 478.666 356.169 478.605C355.681 470.055 355.203 461.494 354.715 452.924C352.589 458.76 350.474 464.565 348.329 470.339C346.539 470.299 344.739 470.258 342.96 470.217C340.916 464.646 338.842 459.105 336.787 453.585C336.33 461.728 335.872 469.851 335.445 477.964C333.381 477.903 331.357 477.832 329.324 477.781C330.076 465.327 330.829 452.873 331.612 440.409C332.517 440.063 333.615 439.87 334.886 439.86C334.866 439.86 334.866 439.86 334.866 439.86Z" fill="white"/>
<path d="M372.55 439.382C373.425 439.362 374.157 439.616 374.767 440.114C375.398 440.622 375.906 441.466 376.313 442.656C378.672 449.732 381.041 456.858 383.41 464.016C385.81 456.96 388.2 449.854 390.59 442.737C391.413 440.307 392.725 439.077 394.464 439.057C395.908 439.026 396.986 439.199 397.708 439.534C398.45 453.015 399.192 466.476 399.945 479.906C397.911 479.855 395.877 479.794 393.874 479.744C393.376 470.858 392.877 461.932 392.41 452.995C390.295 459.095 388.169 465.165 386.054 471.193C384.244 471.143 382.455 471.112 380.675 471.071C378.58 465.287 376.547 459.522 374.493 453.758C374.045 462.247 373.588 470.695 373.12 479.134C371.076 479.052 369.052 478.991 367.019 478.94C367.771 466.008 368.534 452.995 369.307 439.941C370.201 439.585 371.31 439.392 372.581 439.362C372.571 439.372 372.55 439.382 372.55 439.382Z" fill="white"/>
</g>
<defs>
<filter id="filter0_d_18_710" x="0" y="0" width="631.999" height="884.005" filterUnits="userSpaceOnUse" color-interpolation-filters="sRGB">
<feFlood flood-opacity="0" result="BackgroundImageFix"/>
<feColorMatrix in="SourceAlpha" type="matrix" values="0 0 0 0 0 0 0 0 0 0 0 0 0 0 0 0 0 0 127 0" result="hardAlpha"/>
<feOffset/>
<feGaussianBlur stdDeviation="48"/>
<feComposite in2="hardAlpha" operator="out"/>
<feColorMatrix type="matrix" values="0 0 0 0 1 0 0 0 0 1 0 0 0 0 1 0 0 0 0.5 0"/>
<feBlend mode="normal" in2="BackgroundImageFix" result="effect1_dropShadow_18_710"/>
<feBlend mode="normal" in="SourceGraphic" in2="effect1_dropShadow_18_710" result="shape"/>
</filter>
</defs>
</svg>
