<svg width="2109" height="543" viewBox="0 0 2109 543" fill="none" xmlns="http://www.w3.org/2000/svg">
<g opacity="0.25">
<path opacity="0.1" d="M2038.94 73.8478L2109 156.722C2003.66 255.186 1804.48 255.186 1699.14 156.722C1668.63 128.209 1618.23 111.161 1564.25 111.161C1510.27 111.161 1459.86 128.159 1429.35 156.722C1324.01 255.236 1124.84 255.186 1019.49 156.722C988.938 128.209 938.528 111.161 884.601 111.161C830.673 111.161 780.214 128.159 749.707 156.722C697.036 205.954 620.894 230.595 544.753 230.595C468.611 230.595 392.519 205.954 339.798 156.722C309.291 128.209 258.882 111.161 204.904 111.161C150.926 111.161 100.517 128.159 70.0102 156.722L0 73.8478C105.342 -24.616 304.517 -24.616 409.859 73.8478C440.416 102.361 490.775 119.409 544.753 119.409C598.73 119.409 649.14 102.361 679.646 73.8478C784.988 -24.616 984.163 -24.616 1089.56 73.8478C1120.06 102.361 1170.47 119.409 1224.45 119.409C1278.43 119.409 1328.79 102.361 1359.34 73.8478C1464.69 -24.616 1663.86 -24.616 1769.2 73.8478C1799.71 102.361 1850.12 119.409 1904.1 119.409C1958.07 119.409 2008.48 102.361 2038.99 73.8478H2038.94Z" fill="url(#paint0_linear_25_943)"/>
<path opacity="0.2" d="M2038.94 137.864L2109 220.739C2003.66 319.203 1804.48 319.203 1699.14 220.739C1668.63 192.226 1618.23 175.178 1564.25 175.178C1510.27 175.178 1459.86 192.175 1429.35 220.739C1324.01 319.253 1124.84 319.203 1019.49 220.739C988.938 192.226 938.528 175.178 884.601 175.178C830.673 175.178 780.214 192.175 749.707 220.739C697.036 269.971 620.894 294.612 544.753 294.612C468.611 294.612 392.519 269.971 339.798 220.739C309.291 192.226 258.882 175.178 204.904 175.178C150.926 175.178 100.517 192.175 70.0102 220.739L0 137.864C105.342 39.4006 304.517 39.4006 409.859 137.864C440.416 166.378 490.775 183.425 544.753 183.425C598.73 183.425 649.14 166.378 679.646 137.864C784.988 39.4006 984.163 39.4006 1089.56 137.864C1120.06 166.378 1170.47 183.425 1224.45 183.425C1278.43 183.425 1328.79 166.378 1359.34 137.864C1464.69 39.4006 1663.86 39.4006 1769.2 137.864C1799.71 166.378 1850.12 183.425 1904.1 183.425C1958.07 183.425 2008.48 166.378 2038.99 137.864H2038.94Z" fill="url(#paint1_linear_25_943)"/>
<path opacity="0.3" d="M2038.94 189.108L2109 271.982C2003.66 370.446 1804.48 370.446 1699.14 271.982C1668.63 243.469 1618.23 226.421 1564.25 226.421C1510.27 226.421 1459.86 243.419 1429.35 271.982C1324.01 370.496 1124.84 370.446 1019.49 271.982C988.938 243.469 938.528 226.421 884.601 226.421C830.673 226.421 780.214 243.419 749.707 271.982C697.036 321.214 620.894 345.855 544.753 345.855C468.611 345.855 392.519 321.214 339.798 271.982C309.291 243.469 258.882 226.421 204.904 226.421C150.926 226.421 100.517 243.419 70.0102 271.982L0 189.108C105.342 90.6441 304.517 90.6441 409.859 189.108C440.416 217.621 490.775 234.669 544.753 234.669C598.73 234.669 649.14 217.621 679.646 189.108C784.988 90.6441 984.163 90.6441 1089.56 189.108C1120.06 217.621 1170.47 234.669 1224.45 234.669C1278.43 234.669 1328.79 217.621 1359.34 189.108C1464.69 90.6441 1663.86 90.6441 1769.2 189.108C1799.71 217.621 1850.12 234.669 1904.1 234.669C1958.07 234.669 2008.48 217.621 2038.99 189.108H2038.94Z" fill="url(#paint2_linear_25_943)"/>
<path opacity="0.5" d="M2038.94 228.232L2109 311.106C2003.66 409.57 1804.48 409.57 1699.14 311.106C1668.63 282.593 1618.23 265.546 1564.25 265.546C1510.27 265.546 1459.86 282.543 1429.35 311.106C1324.01 409.621 1124.84 409.57 1019.49 311.106C988.938 282.593 938.528 265.546 884.601 265.546C830.673 265.546 780.214 282.543 749.707 311.106C697.036 360.338 620.894 384.979 544.753 384.979C468.611 384.979 392.519 360.338 339.798 311.106C309.291 282.593 258.882 265.546 204.904 265.546C150.926 265.546 100.517 282.543 70.0102 311.106L0 228.232C105.342 129.768 304.517 129.768 409.859 228.232C440.416 256.745 490.775 273.793 544.753 273.793C598.73 273.793 649.14 256.745 679.646 228.232C784.988 129.768 984.163 129.768 1089.56 228.232C1120.06 256.745 1170.47 273.793 1224.45 273.793C1278.43 273.793 1328.79 256.745 1359.34 228.232C1464.69 129.768 1663.86 129.768 1769.2 228.232C1799.71 256.745 1850.12 273.793 1904.1 273.793C1958.07 273.793 2008.48 256.745 2038.99 228.232H2038.94Z" fill="url(#paint3_linear_25_943)"/>
<path opacity="0.6" d="M2038.94 270.725L2109 353.6C2003.66 452.064 1804.48 452.064 1699.14 353.6C1668.63 325.087 1618.23 308.039 1564.25 308.039C1510.27 308.039 1459.86 325.036 1429.35 353.6C1324.01 452.114 1124.84 452.064 1019.49 353.6C988.938 325.087 938.528 308.039 884.601 308.039C830.673 308.039 780.214 325.036 749.707 353.6C697.036 402.832 620.894 427.473 544.753 427.473C468.611 427.473 392.519 402.832 339.798 353.6C309.291 325.087 258.882 308.039 204.904 308.039C150.926 308.039 100.517 325.036 70.0102 353.6L0 270.725C105.342 172.261 304.517 172.261 409.859 270.725C440.416 299.239 490.775 316.286 544.753 316.286C598.73 316.286 649.14 299.239 679.646 270.725C784.988 172.261 984.163 172.261 1089.56 270.725C1120.06 299.239 1170.47 316.286 1224.45 316.286C1278.43 316.286 1328.79 299.239 1359.34 270.725C1464.69 172.261 1663.86 172.261 1769.2 270.725C1799.71 299.239 1850.12 316.286 1904.1 316.286C1958.07 316.286 2008.48 299.239 2038.99 270.725H2038.94Z" fill="url(#paint4_linear_25_943)"/>
<path opacity="0.8" d="M2038.94 304.418L2109 387.293C2003.66 485.756 1804.48 485.756 1699.14 387.293C1668.63 358.779 1618.23 341.732 1564.25 341.732C1510.27 341.732 1459.86 358.729 1429.35 387.293C1324.01 485.807 1124.84 485.756 1019.49 387.293C988.938 358.779 938.528 341.732 884.601 341.732C830.673 341.732 780.214 358.729 749.707 387.293C697.036 436.525 620.894 461.166 544.753 461.166C468.611 461.166 392.519 436.525 339.798 387.293C309.291 358.779 258.882 341.732 204.904 341.732C150.926 341.732 100.517 358.729 70.0102 387.293L0 304.418C105.342 205.954 304.517 205.954 409.859 304.418C440.416 332.931 490.775 349.979 544.753 349.979C598.73 349.979 649.14 332.931 679.646 304.418C784.988 205.954 984.163 205.954 1089.56 304.418C1120.06 332.931 1170.47 349.979 1224.45 349.979C1278.43 349.979 1328.79 332.931 1359.34 304.418C1464.69 205.954 1663.86 205.954 1769.2 304.418C1799.71 332.931 1850.12 349.979 1904.1 349.979C1958.07 349.979 2008.48 332.931 2038.99 304.418H2038.94Z" fill="url(#paint5_linear_25_943)"/>
<path opacity="0.9" d="M2038.94 343.542L2109 426.417C2003.66 524.881 1804.48 524.881 1699.14 426.417C1668.63 397.903 1618.23 380.856 1564.25 380.856C1510.27 380.856 1459.86 397.853 1429.35 426.417C1324.01 524.931 1124.84 524.881 1019.49 426.417C988.938 397.903 938.528 380.856 884.601 380.856C830.673 380.856 780.214 397.853 749.707 426.417C697.036 475.649 620.894 500.29 544.753 500.29C468.611 500.29 392.519 475.649 339.798 426.417C309.291 397.903 258.882 380.856 204.904 380.856C150.926 380.856 100.517 397.853 70.0102 426.417L0 343.542C105.342 245.078 304.517 245.078 409.859 343.542C440.416 372.055 490.775 389.103 544.753 389.103C598.73 389.103 649.14 372.055 679.646 343.542C784.988 245.078 984.163 245.078 1089.56 343.542C1120.06 372.055 1170.47 389.103 1224.45 389.103C1278.43 389.103 1328.79 372.055 1359.34 343.542C1464.69 245.078 1663.86 245.078 1769.2 343.542C1799.71 372.055 1850.12 389.103 1904.1 389.103C1958.07 389.103 2008.48 372.055 2038.99 343.542H2038.94Z" fill="url(#paint6_linear_25_943)"/>
<path d="M2038.94 386.035L2109 468.91C2003.66 567.374 1804.48 567.374 1699.14 468.91C1668.63 440.397 1618.23 423.349 1564.25 423.349C1510.27 423.349 1459.86 440.346 1429.35 468.91C1324.01 567.424 1124.84 567.374 1019.49 468.91C988.938 440.397 938.528 423.349 884.601 423.349C830.673 423.349 780.214 440.346 749.707 468.91C697.036 518.142 620.894 542.783 544.753 542.783C468.611 542.783 392.519 518.142 339.798 468.91C309.291 440.397 258.882 423.349 204.904 423.349C150.926 423.349 100.517 440.346 70.0102 468.91L0 386.035C105.342 287.572 304.517 287.572 409.859 386.035C440.416 414.549 490.775 431.596 544.753 431.596C598.73 431.596 649.14 414.549 679.646 386.035C784.988 287.572 984.163 287.572 1089.56 386.035C1120.06 414.549 1170.47 431.596 1224.45 431.596C1278.43 431.596 1328.79 414.549 1359.34 386.035C1464.69 287.572 1663.86 287.572 1769.2 386.035C1799.71 414.549 1850.12 431.596 1904.1 431.596C1958.07 431.596 2008.48 414.549 2038.99 386.035H2038.94Z" fill="url(#paint7_linear_25_943)"/>
</g>
<defs>
<linearGradient id="paint0_linear_25_943" x1="0" y1="115.285" x2="2109" y2="115.285" gradientUnits="userSpaceOnUse">
<stop stop-color="#8B7BFF"/>
<stop offset="0.85" stop-color="#FA0D48"/>
</linearGradient>
<linearGradient id="paint1_linear_25_943" x1="0" y1="179.302" x2="5.02586" y2="179.302" gradientUnits="userSpaceOnUse">
<stop stop-color="#8B7BFF"/>
<stop offset="0.85" stop-color="#FA0D48"/>
</linearGradient>
<linearGradient id="paint2_linear_25_943" x1="0" y1="230.595" x2="5.02586" y2="230.595" gradientUnits="userSpaceOnUse">
<stop stop-color="#8B7BFF"/>
<stop offset="0.85" stop-color="#FA0D48"/>
</linearGradient>
<linearGradient id="paint3_linear_25_943" x1="0" y1="269.719" x2="5.02586" y2="269.719" gradientUnits="userSpaceOnUse">
<stop stop-color="#8B7BFF"/>
<stop offset="0.85" stop-color="#FA0D48"/>
</linearGradient>
<linearGradient id="paint4_linear_25_943" x1="0" y1="312.163" x2="5.02586" y2="312.163" gradientUnits="userSpaceOnUse">
<stop stop-color="#8B7BFF"/>
<stop offset="0.85" stop-color="#FA0D48"/>
</linearGradient>
<linearGradient id="paint5_linear_25_943" x1="0" y1="345.906" x2="5.02586" y2="345.906" gradientUnits="userSpaceOnUse">
<stop stop-color="#8B7BFF"/>
<stop offset="0.85" stop-color="#FA0D48"/>
</linearGradient>
<linearGradient id="paint6_linear_25_943" x1="0" y1="384.979" x2="5.02586" y2="384.979" gradientUnits="userSpaceOnUse">
<stop stop-color="#8B7BFF"/>
<stop offset="0.85" stop-color="#FA0D48"/>
</linearGradient>
<linearGradient id="paint7_linear_25_943" x1="0" y1="427.473" x2="5.02586" y2="427.473" gradientUnits="userSpaceOnUse">
<stop stop-color="#8B7BFF"/>
<stop offset="0.85" stop-color="#FA0D48"/>
</linearGradient>
</defs>
</svg>
